<svg xmlns="http://www.w3.org/2000/svg" width="350.865" height="310.194" viewBox="0 0 350.865 310.194">
  <g id="golang-illustration" transform="translate(-855.015 -749.15)">
    <g id="bg" transform="translate(846.72 873.775) rotate(-30)" opacity="0.2">
      <path id="Path_1114" data-name="Path 1114" d="M0,16.644,26.724,0,53.811,15.484,27.151,32.9Z" transform="translate(81.387 33.574)" fill="rgba(0,0,0,0)" stroke="#000" stroke-width="1"/>
      <path id="Path_1128" data-name="Path 1128" d="M0,16.644,26.724,0,53.811,15.484,27.151,32.9Z" transform="translate(164.235 79.524)" fill="rgba(0,0,0,0)" stroke="#000" stroke-width="1"/>
      <path id="Path_1152" data-name="Path 1152" d="M0,16.644,26.724,0,53.811,15.484,27.151,32.9Z" transform="translate(193.087 63.54)" fill="rgba(0,0,0,0)" stroke="#000" stroke-width="1"/>
      <path id="Path_1155" data-name="Path 1155" d="M0,16.644,26.724,0,53.811,15.484,27.151,32.9Z" transform="translate(218.046 47.089)" fill="rgba(0,0,0,0)" stroke="#000" stroke-width="1"/>
      <path id="Path_1156" data-name="Path 1156" d="M0,16.644,26.724,0,53.811,15.484,27.151,32.9Z" transform="translate(218.046 14.188)" fill="rgba(0,0,0,0)" stroke="#000" stroke-width="1"/>
      <path id="Path_1134" data-name="Path 1134" d="M0,16.644,26.724,0,53.811,15.484,27.151,32.9Z" transform="translate(83.827 129.342)" fill="rgba(0,0,0,0)" stroke="#000" stroke-width="1"/>
      <path id="Path_1140" data-name="Path 1140" d="M0,16.644,26.724,0,53.811,15.484,27.151,32.9Z" transform="translate(58.941 179.161)" fill="rgba(0,0,0,0)" stroke="#000" stroke-width="1"/>
      <path id="Path_1146" data-name="Path 1146" d="M0,16.644,26.724,0,53.811,15.484,27.151,32.9Z" transform="translate(167.478 176.028)" fill="rgba(0,0,0,0)" stroke="#000" stroke-width="1"/>
      <path id="Path_1165" data-name="Path 1165" d="M0,16.644,26.724,0,53.811,15.484,27.151,32.9Z" transform="translate(193.663 192.243)" fill="rgba(0,0,0,0)" stroke="#000" stroke-width="1"/>
      <path id="Path_1167" data-name="Path 1167" d="M0,16.644,26.724,0,53.811,15.484,27.151,32.9Z" transform="translate(219.992 208.929)" fill="rgba(0,0,0,0)" stroke="#000" stroke-width="1"/>
      <path id="Path_1168" data-name="Path 1168" d="M0,16.644,26.724,0,53.811,15.484,27.151,32.9Z" transform="translate(137.064 226.885)" fill="rgba(0,0,0,0)" stroke="#000" stroke-width="1"/>
      <path id="Path_1169" data-name="Path 1169" d="M0,16.644,26.724,0,53.811,15.484,27.151,32.9Z" transform="translate(112.461 210.198)" fill="rgba(0,0,0,0)" stroke="#000" stroke-width="1"/>
      <path id="Path_1170" data-name="Path 1170" d="M0,16.644,26.724,0,53.811,15.484,27.151,32.9Z" transform="translate(86.787 195.611)" fill="rgba(0,0,0,0)" stroke="#000" stroke-width="1"/>
      <path id="Path_1171" data-name="Path 1171" d="M0,16.644,26.724,0,53.811,15.484,27.151,32.9Z" transform="translate(57.735 213.567)" fill="rgba(0,0,0,0)" stroke="#000" stroke-width="1"/>
      <path id="Path_1173" data-name="Path 1173" d="M0,16.644,26.724,0,53.811,15.484,27.151,32.9Z" transform="translate(112.105 243.335)" fill="rgba(0,0,0,0)" stroke="#000" stroke-width="1"/>
      <path id="Path_1174" data-name="Path 1174" d="M0,16.644,26.724,0,53.811,15.484,27.151,32.9Z" transform="translate(166.83 241.831)" fill="rgba(0,0,0,0)" stroke="#000" stroke-width="1"/>
      <path id="Path_1122" data-name="Path 1122" d="M0,16.644,26.724,0,53.811,15.484,27.151,32.9Z" transform="translate(54.481 51.061)" fill="rgba(0,0,0,0)" stroke="#000" stroke-width="1"/>
      <path id="Path_1163" data-name="Path 1163" d="M0,16.644,26.724,0,53.811,15.484,27.151,32.9Z" transform="translate(27.575 68.45)" fill="rgba(0,0,0,0)" stroke="#000" stroke-width="1"/>
      <path id="Path_1127" data-name="Path 1127" d="M0,16.644,26.724,0,53.811,15.484,27.151,32.9Z" transform="translate(137.638 97.479)" fill="rgba(0,0,0,0)" stroke="#000" stroke-width="1"/>
      <path id="Path_1160" data-name="Path 1160" d="M0,16.644,26.724,0,53.811,15.484,27.151,32.9Z" transform="translate(110.733 114.868)" fill="rgba(0,0,0,0)" stroke="#000" stroke-width="1"/>
      <path id="Path_1133" data-name="Path 1133" d="M0,16.644,26.724,0,53.811,15.484,27.151,32.9Z" transform="translate(57.231 147.297)" fill="rgba(0,0,0,0)" stroke="#000" stroke-width="1"/>
      <path id="Path_1139" data-name="Path 1139" d="M0,16.644,26.724,0,53.811,15.484,27.151,32.9Z" transform="translate(32.345 197.116)" fill="rgba(0,0,0,0)" stroke="#000" stroke-width="1"/>
      <path id="Path_1145" data-name="Path 1145" d="M0,16.644,26.724,0,53.811,15.484,27.151,32.9Z" transform="translate(140.882 193.983)" fill="rgba(0,0,0,0)" stroke="#000" stroke-width="1"/>
      <path id="Path_1166" data-name="Path 1166" d="M0,16.644,26.724,0,53.811,15.484,27.151,32.9Z" transform="translate(167.067 210.198)" fill="rgba(0,0,0,0)" stroke="#000" stroke-width="1"/>
      <path id="Path_1151" data-name="Path 1151" d="M0,16.644,26.724,0,53.811,15.484,27.151,32.9Z" transform="translate(221.307 144.165)" fill="rgba(0,0,0,0)" stroke="#000" stroke-width="1"/>
      <path id="Path_1157" data-name="Path 1157" d="M0,16.644,26.724,0,53.811,15.484,27.151,32.9Z" transform="translate(194.402 161.554)" fill="rgba(0,0,0,0)" stroke="#000" stroke-width="1"/>
      <path id="Path_1164" data-name="Path 1164" d="M0,16.644,26.724,0,53.811,15.484,27.151,32.9Z" transform="translate(220.587 177.769)" fill="rgba(0,0,0,0)" stroke="#000" stroke-width="1"/>
      <path id="Path_1115" data-name="Path 1115" d="M0,16.644,26.724,0,53.811,15.484,27.151,32.9Z" transform="translate(81.387 0.673)" fill="rgba(0,0,0,0)" stroke="#000" stroke-width="1"/>
      <path id="Path_1117" data-name="Path 1117" d="M0,16.644,26.724,0,53.811,15.484,27.151,32.9Z" transform="translate(54.481 18.16)" fill="rgba(0,0,0,0)" stroke="#000" stroke-width="1"/>
      <path id="Path_1126" data-name="Path 1126" d="M0,16.644,26.724,0,53.811,15.484,27.151,32.9Z" transform="translate(137.064 64.582)" fill="rgba(0,0,0,0)" stroke="#000" stroke-width="1"/>
      <path id="Path_1154" data-name="Path 1154" d="M0,16.644,26.724,0,53.811,15.484,27.151,32.9Z" transform="translate(165.916 48.599)" fill="rgba(0,0,0,0)" stroke="#000" stroke-width="1"/>
      <path id="Path_1132" data-name="Path 1132" d="M0,16.644,26.724,0,53.811,15.484,27.151,32.9Z" transform="translate(56.657 114.401)" fill="rgba(0,0,0,0)" stroke="#000" stroke-width="1"/>
      <path id="Path_1138" data-name="Path 1138" d="M0,16.644,26.724,0,53.811,15.484,27.151,32.9Z" transform="translate(31.771 164.22)" fill="rgba(0,0,0,0)" stroke="#000" stroke-width="1"/>
      <path id="Path_1144" data-name="Path 1144" d="M0,16.644,26.724,0,53.811,15.484,27.151,32.9Z" transform="translate(140.307 161.087)" fill="rgba(0,0,0,0)" stroke="#000" stroke-width="1"/>
      <path id="Path_1150" data-name="Path 1150" d="M0,16.644,26.724,0,53.811,15.484,27.151,32.9Z" transform="translate(220.733 111.269)" fill="rgba(0,0,0,0)" stroke="#000" stroke-width="1"/>
      <path id="Path_1120" data-name="Path 1120" d="M0,16.644,26.724,0,53.811,15.484,27.151,32.9Z" transform="translate(26.906 2.382)" fill="rgba(0,0,0,0)" stroke="#000" stroke-width="1"/>
      <path id="Path_1124" data-name="Path 1124" d="M0,16.644,26.724,0,53.811,15.484,27.151,32.9Z" transform="translate(109.218 49.288)" fill="rgba(0,0,0,0)" stroke="#000" stroke-width="1"/>
      <path id="Path_1130" data-name="Path 1130" d="M0,16.644,26.724,0,53.811,15.484,27.151,32.9Z" transform="translate(28.81 99.107)" fill="rgba(0,0,0,0)" stroke="#000" stroke-width="1"/>
      <path id="Path_1136" data-name="Path 1136" d="M0,16.644,26.724,0,53.811,15.484,27.151,32.9Z" transform="translate(3.924 148.925)" fill="rgba(0,0,0,0)" stroke="#000" stroke-width="1"/>
      <path id="Path_1142" data-name="Path 1142" d="M0,16.644,26.724,0,53.811,15.484,27.151,32.9Z" transform="translate(112.461 145.793)" fill="rgba(0,0,0,0)" stroke="#000" stroke-width="1"/>
      <path id="Path_1148" data-name="Path 1148" d="M0,16.644,26.724,0,53.811,15.484,27.151,32.9Z" transform="translate(192.886 95.974)" fill="rgba(0,0,0,0)" stroke="#000" stroke-width="1"/>
      <path id="Path_1153" data-name="Path 1153" d="M0,16.644,26.724,0,53.811,15.484,27.151,32.9Z" transform="translate(221.738 79.99)" fill="rgba(0,0,0,0)" stroke="#000" stroke-width="1"/>
      <path id="Path_1118" data-name="Path 1118" d="M0,16.644,26.724,0,53.811,15.484,27.151,32.9Z" transform="translate(27.575 34.611)" fill="rgba(0,0,0,0)" stroke="#000" stroke-width="1"/>
      <path id="Path_1125" data-name="Path 1125" d="M0,16.644,26.724,0,53.811,15.484,27.151,32.9Z" transform="translate(110.45 81.5)" fill="rgba(0,0,0,0)" stroke="#000" stroke-width="1"/>
      <path id="Path_1161" data-name="Path 1161" d="M0,16.644,26.724,0,53.811,15.484,27.151,32.9Z" transform="translate(83.544 98.889)" fill="rgba(0,0,0,0)" stroke="#000" stroke-width="1"/>
      <path id="Path_1131" data-name="Path 1131" d="M0,16.644,26.724,0,53.811,15.484,27.151,32.9Z" transform="translate(30.043 131.319)" fill="rgba(0,0,0,0)" stroke="#000" stroke-width="1"/>
      <path id="Path_1137" data-name="Path 1137" d="M0,16.644,26.724,0,53.811,15.484,27.151,32.9Z" transform="translate(5.156 181.137)" fill="rgba(0,0,0,0)" stroke="#000" stroke-width="1"/>
      <path id="Path_1143" data-name="Path 1143" d="M0,16.644,26.724,0,53.811,15.484,27.151,32.9Z" transform="translate(113.693 178.004)" fill="rgba(0,0,0,0)" stroke="#000" stroke-width="1"/>
      <path id="Path_1149" data-name="Path 1149" d="M0,16.644,26.724,0,53.811,15.484,27.151,32.9Z" transform="translate(194.119 128.186)" fill="rgba(0,0,0,0)" stroke="#000" stroke-width="1"/>
      <path id="Path_1158" data-name="Path 1158" d="M0,16.644,26.724,0,53.811,15.484,27.151,32.9Z" transform="translate(167.213 145.575)" fill="rgba(0,0,0,0)" stroke="#000" stroke-width="1"/>
      <path id="Path_1121" data-name="Path 1121" d="M0,16.644,26.724,0,53.811,15.484,27.151,32.9Z" transform="translate(0 18.833)" fill="rgba(0,0,0,0)" stroke="#000" stroke-width="1"/>
      <path id="Path_1123" data-name="Path 1123" d="M0,16.644,26.724,0,53.811,15.484,27.151,32.9Z" transform="translate(82.603 66.205)" fill="rgba(0,0,0,0)" stroke="#000" stroke-width="1"/>
      <path id="Path_1162" data-name="Path 1162" d="M0,16.644,26.724,0,53.811,15.484,27.151,32.9Z" transform="translate(55.698 83.595)" fill="rgba(0,0,0,0)" stroke="#000" stroke-width="1"/>
      <path id="Path_1129" data-name="Path 1129" d="M0,16.644,26.724,0,53.811,15.484,27.151,32.9Z" transform="translate(2.196 116.024)" fill="rgba(0,0,0,0)" stroke="#000" stroke-width="1"/>
      <path id="Path_1141" data-name="Path 1141" d="M0,16.644,26.724,0,53.811,15.484,27.151,32.9Z" transform="translate(85.847 162.71)" fill="rgba(0,0,0,0)" stroke="#000" stroke-width="1"/>
      <path id="Path_1147" data-name="Path 1147" d="M0,16.644,26.724,0,53.811,15.484,27.151,32.9Z" transform="translate(166.272 112.891)" fill="rgba(0,0,0,0)" stroke="#000" stroke-width="1"/>
      <path id="Path_1159" data-name="Path 1159" d="M0,16.644,26.724,0,53.811,15.484,27.151,32.9Z" transform="translate(139.366 130.281)" fill="rgba(0,0,0,0)" stroke="#000" stroke-width="1"/>
      <path id="Path_1119" data-name="Path 1119" d="M0,16.644,26.724,0,53.811,15.484,27.151,32.9Z" transform="translate(0.67 51.734)" fill="rgba(0,0,0,0)" stroke="#000" stroke-width="1"/>
      <path id="Path_1116" data-name="Path 1116" d="M0,16.644,26.724,0,53.811,15.484,27.151,32.9Z" transform="translate(135.867)" fill="rgba(0,0,0,0)" stroke="#000" stroke-width="1"/>
    </g>
    <g id="golang" transform="translate(901.949 768.866)">
      <g id="Group_17" data-name="Group 17" transform="translate(1.411 11.958)">
        <path id="Path_925" data-name="Path 925" d="M327.669,366.526c-31.8-3.366-58.2-17.1-63.6-32.951-1.417-4.163-1.329-11.072.266-14.792.709-1.772,1.063-3.543.8-3.986s.531-.8,1.772-.8a5.051,5.051,0,0,1,3.986,2.569c4.872,6.82,20.2,15.59,35.077,20.018,4.429,1.329,10.186,3.366,12.932,4.517a55.6,55.6,0,0,0,13.729,3.1c7.529.886,9.744.886,15.412-.354,3.632-.886,11.072-2.48,16.387-3.632,17.1-3.72,29.939-9.743,39.063-18.424,4.252-3.986,8.061-5.669,7.175-3.1a9.644,9.644,0,0,0,.709,4.163c2.037,5.4,2.214,8.592.8,13.464-3.1,10.364-19.4,21.79-38.443,26.75C360.532,366.615,341.4,368.032,327.669,366.526Z" transform="translate(-131.553 -97.428)"/>
        <path id="Path_926" data-name="Path 926" d="M251.349,303.9c-.709-1.063-1.86-1.152-6.2-.354-6.732,1.152-30.559.266-39.063-1.417-33.305-6.732-54.386-25.422-47.743-42.694.8-2.215,1.329-4.783,1.063-5.758-.62-2.48,3.189-2.3,4.872.354,5.669,8.5,21.081,17.45,37.734,21.79a41.725,41.725,0,0,1,8.681,3.012c3.543,1.86,14.615,4.163,20.107,4.163,3.455,0,4.163-.266,4.163-1.683s.974-1.683,6.2-2.214c5.315-.531,6.2-.886,6.2-2.392,0-1.329.62-1.683,3.012-1.683,2.657,0,3.012.266,3.366,2.834.62,3.809-.266,27.282-.974,27.282a2.763,2.763,0,0,1-1.417-1.24Z" transform="translate(-119.451 -90.337)"/>
        <path id="Path_927" data-name="Path 927" d="M329.2,302.544c-6.289-1.063-13.109-3.454-16.83-5.846-2.746-1.772-3.366-2.657-3.366-5.137,0-2.657.443-3.1,5.137-5.492l5.049-2.569h19.487c20.373,0,32.508,1.24,37.025,3.809,1.949,1.152,2.392,2.037,2.392,4.872,0,3.277-.177,3.454-5.58,6.023a68.012,68.012,0,0,1-11.781,3.9c-6.555,1.417-24.359,1.594-31.534.443Z" transform="translate(-136.8 -93.945)"/>
        <path id="Path_928" data-name="Path 928" d="M429,288.429c0-3.809.266-4.429,1.772-4.429s1.772.62,1.772,4.429-.266,4.429-1.772,4.429S429,292.238,429,288.429Z" transform="translate(-150.507 -94.002)"/>
        <path id="Path_929" data-name="Path 929" d="M429,278.55c0-3.809,1.152-4.606,2.657-1.86,1.506,2.923,1.063,5.4-.886,5.4C429.266,282.093,429,281.473,429,278.55Z" transform="translate(-150.507 -92.981)"/>
        <path id="Path_930" data-name="Path 930" d="M387,277.1c0-2.923.177-3.1,3.1-3.1s3.1.177,3.1,3.1-.177,3.1-3.1,3.1S387,280.023,387,277.1Z" transform="translate(-145.709 -92.859)"/>
        <path id="Path_931" data-name="Path 931" d="M260,271.1c0-2.923.177-3.1,3.1-3.1s3.1.177,3.1,3.1-.177,3.1-3.1,3.1S260,274.023,260,271.1Z" transform="translate(-131.202 -92.174)"/>
        <path id="Path_932" data-name="Path 932" d="M308,269.1c0-2.923.177-3.1,3.1-3.1s3.1.177,3.1,3.1-.177,3.1-3.1,3.1S308,272.023,308,269.1Z" transform="translate(-136.685 -91.946)"/>
        <path id="Path_933" data-name="Path 933" d="M396,241.1c0-3.543,2.126-4.34,3.012-1.063s.62,4.163-1.24,4.163C396.354,244.2,396,243.576,396,241.1Z" transform="translate(-146.737 -88.743)"/>
        <path id="Path_934" data-name="Path 934" d="M292,237.986C292,234,292,234,295.1,234s3.1,0,3.1,3.986,0,3.986-3.1,3.986S292,241.972,292,237.986Z" transform="translate(-134.858 -88.29)"/>
        <path id="Path_935" data-name="Path 935" d="M212.545,238.235c-7.086-3.012-7.618-3.543-7.352-7.086.266-3.012.709-3.455,5.049-5.669a20.049,20.049,0,0,1,8.681-2.48h3.809v16.83l-3.277-.089A22.057,22.057,0,0,1,212.545,238.235Z" transform="translate(-124.936 -87.034)"/>
        <path id="Path_936" data-name="Path 936" d="M154.219,226.243c1.152-1.772-.886-3.72-8.415-8.061-4.252-2.48-8.061-4.872-8.326-5.4-1.329-2.037,5.492-.531,10.275,2.3,5.935,3.455,7,3.72,7,1.772a1.362,1.362,0,0,1,1.329-1.329c1.063,0,1.329,1.24,1.329,5.758,0,5.226-.177,5.758-1.86,5.758C154.574,227.04,153.954,226.685,154.219,226.243Z" transform="translate(-117.188 -85.759)"/>
        <path id="Path_937" data-name="Path 937" d="M315,212.1c0-2.923.177-3.1,3.1-3.1s3.1.177,3.1,3.1-.177,3.1-3.1,3.1S315,215.023,315,212.1Z" transform="translate(-137.485 -85.435)"/>
        <path id="Path_938" data-name="Path 938" d="M152.865,207.833c-.177-1.24-5.758-4.872-19.487-12.667-10.629-6.023-19.044-11.249-18.778-11.515,1.506-1.506,8.592,1.506,22.853,9.743,8.769,4.96,16.387,9.123,16.918,9.123a3.509,3.509,0,0,0,2.037-1.063c.8-.8,1.063-.354,1.063,2.126a18.71,18.71,0,0,1-.531,4.606A2.117,2.117,0,0,1,152.865,207.833Z" transform="translate(-114.593 -82.497)"/>
        <path id="Path_939" data-name="Path 939" d="M373,205.1c0-2.48.354-3.1,1.772-3.1s1.772.62,1.772,3.1-.354,3.1-1.772,3.1S373,207.58,373,205.1Z" transform="translate(-144.11 -84.635)"/>
        <path id="Path_940" data-name="Path 940" d="M170,192.1c0-2.923.177-3.1,3.1-3.1s3.1.177,3.1,3.1-.177,3.1-3.1,3.1S170,195.023,170,192.1Z" transform="translate(-120.922 -83.15)"/>
        <path id="Path_941" data-name="Path 941" d="M251.826,187.932c-.531-.62-1.24-3.809-1.594-7.086L249.7,175h4.163c4.075,0,4.075,0,4.075,3.012a6.367,6.367,0,0,0,1.329,4.075,6.367,6.367,0,0,1,1.329,4.075c0,2.923-.089,3.012-3.9,3.012C254.483,189.172,252.446,188.641,251.826,187.932Z" transform="translate(-130.026 -81.551)"/>
        <path id="Path_942" data-name="Path 942" d="M264,185.986V182h7.972v7.972H264Z" transform="translate(-131.659 -82.35)"/>
        <path id="Path_943" data-name="Path 943" d="M274,180.443V176.9l3.366.266c3.1.266,3.277.443,3.543,3.632l.266,3.277H274v-3.632Z" transform="translate(-132.802 -81.768)"/>
        <path id="Path_944" data-name="Path 944" d="M132,163.1c0-2.923.177-3.1,3.1-3.1s3.1.177,3.1,3.1-.177,3.1-3.1,3.1S132,166.023,132,163.1Z" transform="translate(-116.581 -79.838)"/>
        <path id="Path_945" data-name="Path 945" d="M147,142.955c0-.8,2.126-2.657,3.809-3.277,1.152-.443,1.506-.089,1.506,1.594,0,1.86-.443,2.214-2.657,2.214C148.24,143.486,147,143.221,147,142.955Z" transform="translate(-118.295 -77.496)"/>
        <path id="Path_946" data-name="Path 946" d="M392.749,139.068c-8.149-2.834-11.958-9.3-8.326-14.35.709-1.063,1.063-2.392.8-2.834-.886-1.506,2.835-.974,4.075.531,1.772,2.126,7.529,4.783,11.692,5.315a21.561,21.561,0,0,0,14.527-3.72c3.277-2.48,6.023-2.746,6.289-.531.089.8.443,3.189.709,5.315.443,3.366.266,3.986-2.126,6.2-5.4,5.049-18.867,7.086-27.636,4.075Z" transform="translate(-145.257 -75.381)"/>
        <path id="Path_947" data-name="Path 947" d="M137.095,118.065c-5.758-3.366-10.718-6.289-10.9-6.466-.089-.177,1.594-1.152,3.809-2.214,4.163-1.949,4.606-2.657,2.923-4.34-.8-.8-.443-1.063,1.86-1.063,1.683,0,5.049,1.24,8.149,3.1,2.923,1.683,5.492,3.1,5.669,3.1s2.746-1.417,5.669-3.1c5.049-3.012,11.515-4.429,9.123-2.037-.8.8-.089,1.683,3.366,3.809L171.2,111.6l-3.72,2.037c-2.126,1.151-7.086,4.075-10.984,6.378a65.885,65.885,0,0,1-7.972,4.34C148.078,124.266,142.941,121.52,137.095,118.065Z" transform="translate(-115.918 -73.422)"/>
        <path id="Path_948" data-name="Path 948" d="M400,81.989c0-.177,1.24-3.012,2.746-6.378L405.58,69.5l1.683,3.986c3.543,8.149,3.543,7.972,1.152,7.972-1.24,0-2.214-.531-2.214-1.063-.089-.709-.531-.531-1.24.443-.974,1.24-4.96,2.214-4.96,1.152Z" transform="translate(-147.194 -69.5)"/>
      </g>
      <g id="Group_18" data-name="Group 18" transform="translate(0 11.295)">
        <path id="Path_949" data-name="Path 949" d="M313.727,309.022a111.51,111.51,0,0,1-34.545-8.415c-3.632-1.417-7.795-3.1-9.3-3.632-3.543-1.417-12.578-8.769-16.121-13.2-2.657-3.277-2.923-4.163-2.835-9.3.089-3.1-.177-5.935-.443-6.2-.266-.354-.532.266-.532,1.329s-.443,1.949-.974,1.949c-1.063,0-.709-14.438.354-16.83.531-1.152-1.506-1.329-16.387-1.063-19.4.354-28.7-.8-42.34-5.226-15.147-4.96-26.839-12.312-31.711-20.107-2.657-4.163-2.657-4.163-2.037-13.021.443-6.112,1.24-10.009,2.48-12.667,1.683-3.366,1.772-3.9.531-5.137s-1.151-1.506.62-3.455c2.3-2.48,12.047-9.123,17.361-11.869,3.72-1.949,15.767-5.669,21.967-6.82,2.657-.443,3.72-.266,4.429.709.8,1.063,2.037,1.24,6.289.62,2.834-.354,9.832-.974,15.412-1.329,5.846-.354,10.541-1.063,10.9-1.594a9,9,0,0,0,.709-3.809c0-2.569.177-2.746,3.1-2.657,1.683.089,3.1.354,3.1.709s.8.8,1.772,1.063a6.979,6.979,0,0,1,3.277,3.189c1.329,2.3,2.126,2.746,4.783,2.746,2.126,0,3.454-.443,3.809-1.329.62-1.683,5.758-1.772,8.149,0a11.8,11.8,0,0,1,3.277,4.252c1.24,2.569,2.569,3.455,9.123,5.935a92.094,92.094,0,0,1,14.615,7.706c3.9,2.48,7,4.252,7,3.809a.818.818,0,0,1,.8-.886c.443,0,.974,2.126,1.329,4.695,1.24,10.452,1.506,11.249,3.72,11.249a16.494,16.494,0,0,1,5.226,1.506c2.657,1.24,3.1,1.949,3.1,4.429,0,2.657-.266,2.923-2.657,2.923a17.368,17.368,0,0,1-5.757-1.506c-2.48-1.152-3.1-1.949-3.1-4.075,0-2.392-.177-2.569-2.392-1.949-3.454.8-9.123,4.252-12.135,7.175-4.163,4.163-5.226,7.175-5.315,15.058-.089,6.732.089,7.529,2.569,11.161a39.217,39.217,0,0,0,6.909,6.909c4.96,3.632,5.315,6.112,1.949,11.161a12.338,12.338,0,0,0-2.214,4.695c0,1.949,4.252,8.061,5.58,8.061.62.089.089.62-1.063,1.24l-2.126,1.152,3.454,2.3c5.758,3.809,14.792,6.023,26.042,6.555,11.958.531,20.2-.886,28.965-4.96,5.757-2.746,6.732-3.9,4.075-4.96-1.506-.531-1.506-.62.089-1.86,2.3-1.594,4.96-5.758,4.96-7.618a8.887,8.887,0,0,0-2.214-4.075,8.933,8.933,0,0,1-2.214-5.58c.089-2.48.709-3.455,3.986-5.935,4.96-3.632,6.82-6.466,7.529-11.161.266-2.48.886-3.72,2.037-3.9.8-.177,1.506.266,1.506.886,0,.709,2.3,2.3,5.226,3.632,10.541,4.783,19.221,12.844,22.321,20.727,1.683,4.075,1.86,19.576.266,22.5-.709,1.417-1.594,2.569-2.037,2.569-.354,0-2.657,1.949-5.049,4.252-7.972,7.883-27.459,15.235-44.909,17.007-8.149.8-27.016.974-34.279.266Zm41.631-8.149c24.536-6.2,41.631-18.778,41.631-30.736,0-6.732-6.112-15.235-15.412-21.347a34.624,34.624,0,0,0-4.872-2.923,19.061,19.061,0,0,0-2.569,4.517,22.238,22.238,0,0,1-5.049,6.643c-2.834,2.126-2.923,2.3-1.683,4.606,1.683,3.277,1.506,9.655-.443,14-4.252,9.389-19.753,15.412-39.771,15.412-20.816,0-34.988-5.137-40.657-14.792-2.037-3.454-2.214-4.606-1.772-9.743.177-3.1.886-6.2,1.329-6.643.709-.709.089-1.683-2.126-3.455-4.429-3.455-6.2-6.023-7.352-10.364-.974-3.366-1.24-3.632-2.834-2.834-8.415,4.517-16.564,12.667-18.513,18.424-4.96,15.235,17.715,33.128,50.135,39.506,10.984,2.126,11.426,2.126,27.37,1.86,11.692-.177,16.741-.709,22.587-2.126ZM248,246.752c5.4-.709,7.086-1.329,10.186-3.9a69.113,69.113,0,0,1,9.743-6.289,43.331,43.331,0,0,0,5.935-3.543,13.156,13.156,0,0,0-2.746-2.037c-3.366-2.126-6.112-1.594-6.112,1.063,0,2.923-1.683,4.075-5.935,4.075-3.366,0-4.075-.354-5.492-2.746-1.063-1.683-3.632-3.632-7.175-5.315-5.4-2.569-8.415-3.189-3.986-.8,1.772.974,2.214,1.86,2.214,4.517v3.366l-4.96.62c-8.415.974-24.093-.089-30.648-2.214-10.9-3.455-16.741-9.478-17.361-17.627-.443-6.643,1.152-10.541,6.112-14.527,3.632-2.834,13.552-7.795,15.678-7.795a52.6,52.6,0,0,0,5.492-.974c4.34-.886,4.429-.974,4.429-4.252,0-4.075,1.24-5.4,5.049-5.4,2.569,0,2.923-.266,2.923-2.214s-.354-2.214-3.277-2.214c-9.921,0-27.99,3.366-38.177,7.175-18.158,6.643-31.091,19.576-28.876,28.876.974,4.163,4.872,10.275,9.123,14.261,7.706,7.175,25.245,14.615,40.834,17.45,7.883,1.329,27.9,1.594,37.025.443ZM214.52,229.125c0-1.506.266-1.506,4.695-.354a34.9,34.9,0,0,0,8.061.974l3.454-.266-9.478-5.58-9.478-5.58.266-3.277.266-3.277,8.681-2.126c7.883-1.86,8.592-2.214,8.592-4.163,0-1.772.443-2.126,2.923-2.126s3.1.443,3.986,2.923c2.214,6.112,6.112,10.009,14.172,14.172l7.795,4.075,3.1-1.86a9.842,9.842,0,0,0,4.429-5.049c.709-1.772,1.329-3.454,1.506-3.809.177-.443-.531-.709-1.506-.709-1.063,0-1.86-.443-1.86-.974,0-.443-1.152-1.329-2.657-1.772-2.214-.8-2.657-1.417-2.657-3.986,0-2.3.354-3.012,1.594-3.012,2.214,0,3.72-1.683,3.72-4.163,0-1.594.531-2.037,2.214-2.037,2.126,0,2.214-.177,2.214-5.669V185.81l-3.543-.354c-2.923-.266-3.543,0-3.543,1.24a1.494,1.494,0,0,1-1.329,1.594,1.287,1.287,0,0,0-1.329,1.24c0,.8-1.329,1.417-3.72,1.683-2.126.266-5.137.8-6.643,1.063-3.986.886-7.263-.089-8.238-2.48-.709-1.772-.8-1.772-.8-.177a42.72,42.72,0,0,1-2.037,6.82c-1.86,4.783-2.214,5.137-4.872,5.137-2.392,0-2.923-.354-2.923-1.86,0-1.772-.354-1.86-4.517-1.329-9.921,1.329-21.524,7.175-25.333,12.844-2.214,3.277-1.86,4.783,2.214,9.123,1.772,1.949,2.037,2.657,1.151,3.72-1.24,1.417-.089,2.3,6.555,5.137,4.517,1.949,4.872,1.949,4.872-.089Zm62-5.758c0-1.417-3.277-2.569-3.986-1.417-.266.443.266,1.152,1.063,1.683C275.816,224.873,276.524,224.784,276.524,223.367Zm-45.174-5.935c0-2.657-.177-2.746-2.746-2.214a34.265,34.265,0,0,1-4.252.531c-1.24,0,4.695,4.163,6.378,4.34C231.084,220.178,231.35,218.938,231.35,217.433Zm58.9-10.275c4.517-2.214,4.872-2.657,4.872-5.58-.089-2.569-.62-3.543-3.809-5.846-4.695-3.543-14.792-8.592-15.59-7.883-.266.354-.443,6.2-.354,13.109.177,10.541.443,12.755,1.683,13.641,1.24.974,2.037.62,4.96-2.037a40.171,40.171,0,0,1,8.238-5.4Zm-44.466-23.473c-1.152-1.063-2.214-1.683-2.569-1.329-.886.886,1.417,3.277,3.012,3.277C247.382,185.633,247.294,185.279,245.788,183.685Zm11.249.62a1.329,1.329,0,1,0-1.329,1.329A1.362,1.362,0,0,0,257.037,184.3Zm-12.4-6.2a1.329,1.329,0,1,0-1.329,1.329A1.362,1.362,0,0,0,244.637,178.1Z" transform="translate(-117.971 -80.006)" fill="#00aae2"/>
        <path id="Path_950" data-name="Path 950" d="M333.984,249.519c-8.5-1.86-10.984-3.454-10.984-7.086,0-3.9,2.126-5.4,10.718-7.175,8.858-1.949,20.816-1.24,27.9,1.594,4.96,1.949,5.226,2.214,5.492,5.315.266,2.923,0,3.455-2.48,4.695-7.086,3.632-20.638,4.872-30.648,2.657ZM354,242.964c4.252-1.24-8.592-3.012-14.084-1.86-2.569.443-4.96.886-5.315.974-.266.089.443.443,1.683.8C339.033,243.762,350.99,243.85,354,242.964Z" transform="translate(-136.988 -87.646)" fill="#00aae2"/>
        <path id="Path_951" data-name="Path 951" d="M360,222.072c0-2.746.266-3.1,2.214-3.1,1.24,0,2.214-.354,2.214-.886,0-.443.62-.886,1.329-.886s1.329-.354,1.329-.886c0-.443.974-.886,2.214-.886,1.772,0,2.214-.443,2.214-2.214,0-1.594.443-2.214,1.772-2.214a1.59,1.59,0,0,1,1.772,1.772,2.6,2.6,0,0,0,1.329,2.3c2.126.8,1.506,2.126-.886,2.126-1.772,0-2.214.443-2.214,2.214,0,1.417-.531,2.214-1.329,2.214-.709,0-1.329.443-1.329.886,0,.531-.974.886-2.214.886s-2.214.443-2.214.886c0,.531-1.417.886-3.1.886C360.177,225.172,360,225,360,222.072Z" transform="translate(-141.214 -85)" fill="#00aae2"/>
        <path id="Path_952" data-name="Path 952" d="M157.82,179.541c-.354-.443-6.466-4.075-13.641-8.238-12.667-7.352-13.021-7.706-13.287-10.806-.266-2.923-.089-3.189,2.569-3.72,4.96-.974,8.061-.62,11.249,1.417,1.772,1.063,2.834,1.506,2.569.974-.531-.886-6.112-4.252-14.97-9.123C119.732,143.135,113,138.972,113,138.175c0-2.037,1.506-3.1,4.517-3.277,2.48-.177,5.315.974,13.109,5.315,9.123,5.226,10.1,5.58,12.135,4.517,1.594-.886,1.86-1.417,1.063-1.86-.886-.531-.709-1.063.62-2.126,2.746-2.037,5.669-2.569,8.238-1.329,4.34,1.949,45.794,26.042,46.415,27.016,1.683,2.3.62,3.1-4.075,3.1-4.606,0-5.935-.62-25.067-11.6-11.072-6.378-20.727-12.047-21.259-12.489-.62-.531-1.151-.62-1.151-.177,0,.709,9.212,6.2,29.939,17.893,5.137,3.012,5.492,3.366,5.492,6.466,0,2.923-.266,3.277-2.746,3.809-5.049.974-6.289.531-18.69-6.643-6.82-3.9-12.489-7-12.667-6.82s4.075,2.834,9.389,5.935c9.212,5.315,9.655,5.669,9.655,8.5a4.511,4.511,0,0,1-2.214,4.34c-2.214,1.506-6.732,1.949-7.883.8Z" transform="translate(-113 -76.305)" fill="#00aae2"/>
        <path id="Path_953" data-name="Path 953" d="M395.795,130.289c-3.366-1.063-7.529-3.366-8.769-4.872-1.063-1.24-.8-1.417,1.949-1.417,1.772,0,3.72.531,4.429,1.24a9.776,9.776,0,0,0,4.517,1.86c2.3.443,3.189,1.063,3.189,2.3,0,1.772-1.506,2.037-5.315.886Z" transform="translate(-144.235 -75.063)" fill="#00aae2"/>
        <path id="Path_954" data-name="Path 954" d="M408,128.629c0-1.506.62-1.772,3.543-1.772,1.949,0,3.543-.354,3.543-.886,0-.443,1.417-.886,3.1-.886,3.012,0,3.1-.089,3.1-3.543,0-2.923.266-3.543,1.772-3.543,3.012,0,2.214,4.075-1.329,7.529C417.123,129.869,408,131.907,408,128.629Z" transform="translate(-146.697 -74.377)" fill="#00aae2"/>
        <path id="Path_955" data-name="Path 955" d="M409.419,90.653c0-1.949-4.34-10.452-5.315-10.452-.443,0-.886,1.24-.886,2.657,0,1.506-.354,2.657-.886,2.657-.443,0-.886.974-.886,2.214,0,1.772-.443,2.214-2.214,2.214-2.657,0-2.569.177-.8-4.075C401.625,77.809,403.928,74,405.7,74c.8,0,8.149,15.235,8.149,16.83,0,.531-.974.886-2.214.886S409.419,91.184,409.419,90.653Z" transform="translate(-145.459 -69.351)" fill="#00aae2"/>
        <path id="Path_956" data-name="Path 956" d="M150,82.967c0-2.746.531-3.189,10.364-8.946,9.832-5.669,10.364-5.935,12.312-4.606A4.483,4.483,0,0,1,174.8,72.78c0,1.683-1.86,3.1-9.655,7.529-6.112,3.543-10.629,5.492-12.4,5.492-2.48,0-2.746-.266-2.746-2.834Z" transform="translate(-117.226 -68.752)" fill="#00aae2"/>
      </g>
      <g id="Group_19" data-name="Group 19" transform="translate(0.443 0)">
        <path id="Path_957" data-name="Path 957" d="M327.657,321.942c-8.149-.886-21.613-3.366-27.016-4.96-7-2.126-20.727-7.883-21.081-8.858a1.491,1.491,0,0,0-1.24-.709c-1.063,0-10.364-7.263-10.452-8.149a12.258,12.258,0,0,0-2.657-3.189c-2.214-2.214-2.657-3.366-2.657-6.909,0-3.986.089-4.163,1.417-2.48,1.24,1.506,1.329,1.506.886.089a12.6,12.6,0,0,1-.531-2.48c0-.531-.354-.709-.8-.443-.443.354-.62-.177-.354-1.151a2.022,2.022,0,0,0-.531-2.214c-.62-.443-.974.089-.974,1.24s-.443,1.772-1.063,1.594c-.709-.266-1.24-2.48-1.417-5.846-.266-4.96-.089-5.492,1.506-5.492a2.185,2.185,0,0,1,2.126,2.037l.354,1.949.177-1.949c.177-4.252,1.594-1.772,2.037,3.543a18.494,18.494,0,0,0,3.012,9.478c1.417,2.037,2.923,4.517,3.454,5.4a4.626,4.626,0,0,0,2.214,2.126A32.248,32.248,0,0,1,279.737,299c2.3,2.214,4.872,3.986,5.58,3.986a17.99,17.99,0,0,1,4.695,1.772c7,3.543,21.436,8.149,30.116,9.655,23.65,3.809,47.035,1.152,65.9-7.706,4.34-2.037,8.415-3.72,9.035-3.72a1.349,1.349,0,0,0,1.329-1.063c0-.62,2.214-2.923,4.783-5.137a22.914,22.914,0,0,0,6.378-7.706c1.86-4.429,2.923-4.695,4.517-1.417,1.329,2.923,1.417,6.909.177,9.212-1.683,3.012-8.326,8.769-10.806,9.3-1.417.354-2.48,1.063-2.48,1.683,0,2.48-16.83,9.3-29.673,11.958-8.681,1.772-32.951,3.012-41.631,2.126Zm19.31-3.632c-3.1-.177-8.061-.177-11.072,0-3.1.177-.62.266,5.492.266S349.979,318.488,346.967,318.31Zm-21.7-.886a9.1,9.1,0,0,0-3.1,0c-.886.266-.177.443,1.506.443S326.063,317.69,325.266,317.425Zm35.431,0a9.1,9.1,0,0,0-3.1,0c-.886.266-.177.443,1.506.443S361.494,317.69,360.7,317.425Zm8.149-1.151c1.772-.531,1.86-.709.443-.709a10.1,10.1,0,0,0-3.543.709C363.531,317.247,365.834,317.247,368.846,316.273Zm-54.121-.354a18.9,18.9,0,0,0-3.454-.886c-2.214-.354-2.746-.266-1.772.354C310.739,316.185,315.611,316.716,314.725,315.919Zm84.06-11.958c.177-.531-1.063-.177-2.835.886a12.289,12.289,0,0,0-3.189,2.214C392.762,307.77,398.519,304.847,398.785,303.961Zm-118.162-.62c-1.86-1.329-4.96-3.72-6.82-5.315a15.628,15.628,0,0,0-3.9-3.012c-.709,0-.354.354,6.2,5.935,3.012,2.569,6.023,4.606,6.732,4.695C283.546,305.644,282.483,304.581,280.623,303.341Zm128.969-10.1c2.48-4.872,2.214-5.669-.443-.974-2.3,3.9-2.48,4.517-1.772,4.517A14.134,14.134,0,0,0,409.591,293.243Zm-141.9-1.772c-1.949-2.657-3.1-3.632-1.949-1.506.8,1.417,3.189,4.163,3.632,4.163C269.55,294.129,268.842,292.977,267.69,291.471Z" transform="translate(-130.13 -80.657)" fill="#009dff"/>
        <path id="Path_958" data-name="Path 958" d="M335,304.367c0-.62.8-1.417,1.772-1.683s1.772-.089,1.772.354.62.8,1.329.8,1.329.443,1.329.886c0,.531-1.417.886-3.1.886C336.063,305.607,335,305.164,335,304.367Z" transform="translate(-138.801 -84.164)" fill="#009dff"/>
        <path id="Path_959" data-name="Path 959" d="M356,304.493c0-.443.62-.886,1.329-.886s1.329-.354,1.329-.886c0-.443.62-.62,1.329-.354a4.177,4.177,0,0,0,2.923-.089,6.221,6.221,0,0,1,3.1-.531c.8.089,1.506-.177,1.506-.62,0-.531.8-.709,1.772-.443,3.632.974,1.772,2.746-3.809,3.72C358.48,305.645,356,305.645,356,304.493Z" transform="translate(-141.2 -83.936)" fill="#009dff"/>
        <path id="Path_960" data-name="Path 960" d="M321,300.994a1.514,1.514,0,0,1,1.683-1.594c.974,0,1.506.354,1.329.709-.266.354.354.709,1.329.709,1.063,0,1.86.443,1.86.886,0,.531-1.417.886-3.1.886C321.709,302.589,321,302.234,321,300.994Z" transform="translate(-137.202 -83.803)" fill="#009dff"/>
        <path id="Path_961" data-name="Path 961" d="M306.6,291.624a3.68,3.68,0,0,1-1.063-2.214c0-.62-.354-1.151-.709-1.151-2.746,0-3.986-12.932-1.506-15.412a4.481,4.481,0,0,0,1.329-2.657c0-1.683,2.657-3.189,5.669-3.189,2.037,0,2.3.354,2.3,3.012a5.268,5.268,0,0,1-1.594,4.252c-3.366,2.392-2.835,8.415.886,11.161,2.037,1.506,2.037,2.569-.177,3.72-1.594.8-2.126.443-4.429-3.277-1.417-2.3-2.746-5.137-2.746-6.378-.177-2.126-.177-2.214-.531-.266-.531,2.48,3.277,9.123,6.555,11.6l2.48,1.772-2.657.089a6.3,6.3,0,0,1-3.809-1.063Zm3.1-21.7c1.151-.443,1.151-.62-.177-1.329-.8-.531-1.683-.62-1.949-.354-.354.266-.089.531.531.531s.089,1.24-1.151,2.923c-1.329,1.683-2.3,3.543-2.3,4.252.089.709.886-.266,1.86-2.126S308.908,270.189,309.705,269.923Z" transform="translate(-135.031 -80.102)" fill="#009dff"/>
        <path id="Path_962" data-name="Path 962" d="M386.365,289.948c4.606-3.809,6.82-13.109,3.72-15.058-.443-.266-.62.443-.354,1.506.886,3.9.443,7-1.417,9.921-1.772,3.012-3.809,4.429-4.783,3.455s-.531-3.72.62-4.429a8.636,8.636,0,0,0,2.214-3.277c.974-2.126.886-2.834-.266-4.606a10.293,10.293,0,0,1-1.329-4.606c0-2.214.354-2.48,3.012-2.657,3.632-.266,4.517.886,5.4,7,.62,4.075-.8,11.426-2.126,11.426-.443,0-.974.8-1.24,1.772-.354,1.329-1.24,1.772-3.277,1.772h-2.835l2.657-2.214Z" transform="translate(-144.284 -80.463)" fill="#009dff"/>
        <path id="Path_963" data-name="Path 963" d="M261.972,265.858c0-1.506-.62-1.772-3.986-1.772-2.834,0-3.986-.354-3.986-1.24a1.958,1.958,0,0,1,1.594-1.683c1.417-.354,1.417-.443,0-.531A1.494,1.494,0,0,1,254,259.3c0-1.24,5.846-2.3,12.844-2.3,3.454,0,3.543,1.152,0,2.037-1.506.354-1.417.443.354.531l2.126.089-2.126,2.48c-1.329,1.506-.974,1.329,1.24-.62l3.277-3.1v2.392a4.075,4.075,0,0,1-1.772,3.454c-.974.62-1.772,1.594-1.772,2.214s-.8,1.151-1.86,1.151c-1.417,0-1.772-.354-1.329-1.506.531-1.506.443-1.506-.709,0-1.506,1.949-2.3,1.949-2.3-.266Zm-.177-5.935a9.1,9.1,0,0,0-3.1,0c-.886.266-.177.443,1.506.443S262.592,260.189,261.795,259.923Z" transform="translate(-129.549 -78.96)" fill="#009dff"/>
        <path id="Path_964" data-name="Path 964" d="M229,263.772c0-1.683.62-1.772,9.743-1.772s9.744.089,9.744,1.772-.62,1.772-9.744,1.772S229,265.455,229,263.772Z" transform="translate(-126.693 -79.531)" fill="#009dff"/>
        <path id="Path_965" data-name="Path 965" d="M202.8,258.088c-9.478-1.949-19.31-5.137-19.31-6.289,0-.443-.8-.8-1.772-.8-2.126,0-7.972-2.746-7.972-3.72,0-.354-.62-.709-1.329-.709a5.782,5.782,0,0,1-2.923-1.506,17.869,17.869,0,0,0-3.366-2.569,5.161,5.161,0,0,1-1.949-3.277,2.465,2.465,0,0,0-2.569-2.569c-1.506-.177-2.834-1.329-3.986-3.366-1.683-2.834-1.683-3.543-.8-8.149.709-3.366,1.506-5.137,2.392-5.137a1.431,1.431,0,0,1,1.24,1.594c0,.886,1.24,3.455,2.657,5.758,3.012,4.872,3.543,7.972,1.152,7.086-1.417-.531-1.417-.354.089,1.329,1.949,2.3,2.48,2.48,1.772.62-.8-2.126,3.809-1.683,5.137.443.62.974,1.594,1.772,2.126,1.772a6.365,6.365,0,0,1,2.657,1.594,24.292,24.292,0,0,0,5.492,3.189c2.037.974,3.72,2.037,3.72,2.48,0,.354.709.709,1.594.709a60.061,60.061,0,0,1,9.3,2.657,99.765,99.765,0,0,0,14.792,3.632c4.517.709,7.086,1.506,7.086,2.214a1.877,1.877,0,0,1-1.506,1.506c-1.506.354-1.506.443,0,.531a1.54,1.54,0,0,1,1.506,1.417c0,1.772-5.4,1.683-15.235-.443Zm-1.152-4.429a9.416,9.416,0,0,0-3.1-.8c-.8,0-.709.354.443.8a9.415,9.415,0,0,0,3.1.8C202.884,254.457,202.8,254.1,201.644,253.659Zm-15.59-4.695c-1.329-1.063-14.35-7.618-13.552-6.909,1.152,1.24,12.047,7.086,13.109,7.175C186.055,249.231,186.232,249.142,186.055,248.965Zm-24.713-18.778a26.067,26.067,0,0,1-2.657-5.58c-.531-1.683-.8-1.86-.8-.709-.089,1.683,3.986,9.389,4.872,9.389C163.025,233.287,162.4,231.869,161.342,230.186Z" transform="translate(-118.382 -74.733)" fill="#009dff"/>
        <path id="Path_966" data-name="Path 966" d="M229,259.886c0-.531,3.809-.886,9.743-.886s9.744.354,9.744.886-3.809.886-9.744.886S229,260.417,229,259.886Z" transform="translate(-126.693 -79.188)" fill="#009dff"/>
        <path id="Path_967" data-name="Path 967" d="M222.365,238.7c-2.48-.354-3.543-2.923-1.24-2.923q1.2,0,.8-1.86c-.531-1.772-.354-1.86,6.289-1.24,3.72.354,6.732.443,6.732.177s-3.012-2.126-6.643-4.163-6.643-4.075-6.643-4.517-.62-.8-1.329-.8c-.974,0-1.329-1.063-1.329-3.9,0-4.429-.62-4.075,10.275-6.378l7.175-1.506-.443-4.252-.443-4.34h3.1c3.012,0,3.1.089,3.72,4.075.266,2.3.531,5.4.531,6.909l-.089,2.746-1.24-2.214c-.709-1.24-1.24-1.772-1.329-1.24,0,.531-1.683,1.417-3.72,1.949l-3.809.974,3.632-.443c4.783-.62,5.846,1.063,1.506,2.214a25.816,25.816,0,0,1-4.695.974c-4.517.089-2.923,1.86,7.086,7.529,10.009,5.846,10.629,6.289,10.629,8.946,0,3.277-1.329,3.9-8.592,3.9-5.58,0-6.289-1.506-.886-2.037l3.72-.354-3.632-.089c-3.012-.177-3.809-.531-4.34-2.126l-.709-2.037-.354,1.949c-.354,1.594-1.063,2.037-4.517,2.3l-4.163.266,4.252.177c2.3.089,4.163.62,4.163,1.063,0,.886-8.415,1.063-13.464.266Zm13.021-11.426c-2.126-1.594-7.352-4.429-6.466-3.454.886.886,7.175,4.783,7.795,4.783C236.98,228.6,236.36,227.979,235.386,227.27ZM224.4,220.8c-1.594-1.24-1.86-1.772-.886-2.126.709-.266.8-.531.177-.531-2.037-.177-2.037,1.594-.089,2.923C226.351,223.018,226.971,222.841,224.4,220.8Z" transform="translate(-125.55 -72.791)" fill="#009dff"/>
        <path id="Path_968" data-name="Path 968" d="M284.466,236.438c-5.4-3.189-6.466-5.226-2.392-4.429,2.569.443,2.657.089.266-1.152-1.329-.8-2.126-.709-3.1.089-1.063.8-1.24.531-1.24-1.772,0-1.506.443-2.746.886-2.746.531,0,.886-.62.886-1.329,0-.8.8-1.329,1.86-1.329,1.417,0,1.772.354,1.329,1.594-.531,1.417-.443,1.417.709-.089.886-1.152,1.949-1.417,3.72-1.063l2.569.531-2.214-1.329-2.214-1.329,3.1-.089c4.252,0,7.263.886,6.82,2.126-.177.531-1.506.886-2.923.8l-2.569-.266,2.657,1.152c2.3,1.063,2.834.974,3.72-.177.974-1.24,1.063-1.151,1.151.62,0,1.063-.531,4.606-1.063,7.706-1.24,6.555-3.277,7.883-2.923,2.037.089-2.126,0-2.746-.177-1.329-.354,2.126-.62,2.3-2.3,1.417-1.772-.8-1.772-.8-.354.354,1.772,1.417,2.037,3.277.443,3.277-.62,0-3.632-1.506-6.643-3.277Zm5.049-7.352c-2.126-1.329-3.277-.974-1.417.443.974.709,1.949,1.063,2.214.8S290.224,229.529,289.515,229.086Z" transform="translate(-132.29 -74.962)" fill="#009dff"/>
        <path id="Path_969" data-name="Path 969" d="M209.389,234.088c0-.443-.8-.886-1.772-.886s-1.772-.354-1.772-.8-.8-.974-1.772-1.24a2.241,2.241,0,0,1-1.772-1.86,1.382,1.382,0,0,0-1.329-1.417c-3.277,0-5.492-12.312-3.012-17.1,1.772-3.454,5.492-6.82,7.618-6.82,1.152,0,2.037-.531,2.037-1.24,0-1.329,1.86-2.3,4.429-2.3.886,0,1.772-.354,1.949-.886.354-1.063,9.921-3.543,13.729-3.543,3.1,0,3.986,1.329,1.417,2.037-1.506.354-1.506.443,0,.531a1.655,1.655,0,0,1,1.506,1.683c0,1.152-1.594,1.86-7.352,3.189-3.986.974-7.795,2.3-8.415,2.923a5.472,5.472,0,0,1-3.366,1.151c-1.151,0-2.126.531-2.126,1.152,0,.709-1.063,2.126-2.3,3.366-3.9,3.632-4.252,5.049-2.48,8.858.974,1.86,2.48,3.543,3.366,3.809,1.683.443,1.683.531.089,2.3-1.506,1.683-1.683,1.683-3.366.266a21.586,21.586,0,0,1-3.366-4.252c-.974-1.417-1.683-2.126-1.683-1.417,0,1.86,7.706,9.212,8.946,8.415q.93-.531.531.266c-.709,1.152,1.772,2.3,3.1,1.417.62-.266.709-.089.354.443-.354.62-.089,1.063.709,1.063a2.5,2.5,0,0,1,1.86.886c.354.531-.709.886-2.569.886-1.772,0-3.189-.354-3.189-.886Zm-5.846-24.8c.974-1.24.531-.974-.974.62-1.594,1.594-2.923,3.366-2.923,3.986s.531.354,1.063-.62a28.437,28.437,0,0,1,2.834-3.986Zm14.261-7.972c2.48-.886,3.809-1.683,3.1-1.683-1.24,0-8.946,3.189-7.972,3.366A25.237,25.237,0,0,0,217.8,201.315Z" transform="translate(-123.027 -71.992)" fill="#009dff"/>
        <path id="Path_970" data-name="Path 970" d="M314,205.292c0-7.44,1.683-8.681,1.949-1.417,0,2.657.089,5.315.177,5.935.089.531-.443,1.152-.974,1.417C314.266,211.492,314,209.9,314,205.292Z" transform="translate(-136.402 -72.337)" fill="#009dff"/>
        <path id="Path_971" data-name="Path 971" d="M317.889,209.5c-1.151-2.214-1.151-8.592,0-10.806,1.86-3.277,2.657-1.594,2.657,5.4s-.8,8.681-2.657,5.4Z" transform="translate(-136.748 -72.115)" fill="#009dff"/>
        <path id="Path_972" data-name="Path 972" d="M237,199.96c0-1.594,3.543-2.48,5.049-1.24.62.531,1.152.62,1.152.266s-.886-1.329-1.949-2.3l-2.037-1.594,1.86-.089a2.457,2.457,0,0,1,2.48,2.037c.974,3.72.62,4.163-3.012,4.163C238.152,201.2,237,200.846,237,199.96Z" transform="translate(-127.607 -71.877)" fill="#009dff"/>
        <path id="Path_973" data-name="Path 973" d="M168.62,195.9l2.126-2.392-2.923,2.037-2.923,2.037.266-2.835a4.785,4.785,0,0,1,2.923-4.252,39.448,39.448,0,0,0,3.809-2.569,4.259,4.259,0,0,1,2.48-1.152c.709,0,1.24-.354,1.24-.886,0-.443,1.417-.886,3.1-.886,3.809,0,3.986,1.24.443,3.1-1.417.8-2.657,1.594-2.657,1.86,0,.177,1.24-.177,2.657-.974,2.569-1.329,2.657-1.329,2.657.443,0,.974-.62,1.772-1.329,1.772s-1.329.354-1.329.8-.8,1.152-1.772,1.417a15.123,15.123,0,0,0-4.163,2.746,8.129,8.129,0,0,1-4.517,2.126h-2.214l2.126-2.392Zm6.466-4.606c.354-.443-.266-.62-1.152-.354a3.427,3.427,0,0,0-2.214,1.683c-.354.974-.177,1.063,1.24.354a6.327,6.327,0,0,0,2.126-1.683Z" transform="translate(-119.371 -70.735)" fill="#009dff"/>
        <path id="Path_974" data-name="Path 974" d="M191.043,184.134c3.986-1.949,3.986-2.214-.266-1.063-2.569.8-2.834.709-2.834-1.063,0-1.683.886-2.3,5.492-3.632,6.466-1.949,14.084-2.3,14.615-.8.177.531-.354,1.152-1.24,1.417-1.506.354-1.506.443,0,.531a1.465,1.465,0,0,1,1.506,1.24c0,1.24-10.806,4.34-16.83,4.783l-3.986.266,3.543-1.683ZM203,180.5c1.772-.531,1.86-.709.443-.709a10.1,10.1,0,0,0-3.543.709C197.686,181.477,199.989,181.477,203,180.5Z" transform="translate(-121.953 -69.781)" fill="#009dff"/>
        <path id="Path_975" data-name="Path 975" d="M159.117,177.871c0-1.949.266-2.126,1.24-1.329.8.62,1.506.709,1.772.266.266-.531-.443-1.151-1.683-1.417-1.24-.354-2.214-1.151-2.214-1.86,0-.8-.8-1.329-2.126-1.329a4.785,4.785,0,0,1-3.189-1.329,3.918,3.918,0,0,0-2.3-1.329,3.5,3.5,0,0,1-2.3-1.772A3.71,3.71,0,0,0,145.654,166c-2.48,0-12.224-6.466-12.224-8.149,0-1.329.8-1.594,4.872-1.594,2.657,0,4.872-.354,4.872-.886,0-.443-.886-.886-1.86-.886-2.126,0-8.769-3.454-8.769-4.606,0-.354-.531-.709-1.24-.709-1.329,0-7.618-3.366-8.5-4.517a8.479,8.479,0,0,0-2.392-1.152c-1.152-.354-2.037-1.152-2.037-1.86s-1.063-1.329-2.392-1.506c-1.772-.177-2.48-.8-2.48-2.037,0-1.151.531-1.772,1.506-1.683.886.089,1.329-.177,1.063-.62s.531-.8,1.772-.8,2.3.443,2.3.886c0,.531.62.886,1.329.886,1.329,0,12.755,5.846,13.729,7a48.639,48.639,0,0,0,5.137,2.923c4.517,2.392,6.112,2.48,3.1.177-1.417-1.063-1.329-1.152,1.063-1.24,2.48-.089,2.569-.177.974-1.329a2.677,2.677,0,0,1-1.152-2.569c.531-1.24,5.846-2.834,7.529-2.214,3.012,1.151,44.377,25.333,44.466,25.953,0,.354-1.151.531-2.569.354-1.506-.177-2.392,0-2.126.443.266.354,2.126.62,4.075.443,2.923-.177,3.72.089,3.986,1.329.266,1.329-.443,1.506-5.137,1.506-3.1,0-6.466-.531-7.972-1.329l-2.657-1.417v2.746c0,2.392-.266,2.657-2.834,2.657a7.045,7.045,0,0,1-4.163-1.24c-1.949-1.594-9.832-6.112-9.832-5.58,0,.266,2.214,1.772,4.872,3.277s4.872,3.189,4.872,3.632-1.417.8-3.1.8-3.1-.354-3.1-.886a.888.888,0,0,0-.886-.886c-.443,0-.886,1.329-.886,3.012,0,3.72-2.569,5.846-6.82,5.846-2.569,0-2.923-.266-2.923-2.3Zm5.58-3.9c-1.594-1.417-25.865-15.058-26.928-15.058-.531,0,1.063,1.151,3.72,2.569,11.958,6.378,22.853,13.2,22.233,13.818-.354.443-.089.443.531,0C164.963,174.948,165.141,174.328,164.7,173.974Zm15.678-4.252c0-.354-.886-1.152-1.949-1.86-1.772-1.151-1.949-1.063-.974.089.62.709.886,1.594.531,1.86-.266.354.089.62.886.62C179.756,170.431,180.376,170.165,180.376,169.722Zm-17.715-1.949c-1.683-1.152-2.657-1.152-2.657,0,0,.531.886.886,2.037.886C163.635,168.659,163.723,168.482,162.66,167.774Zm3.543-3.1a9.228,9.228,0,0,0-2.657-1.772c-3.366-1.683-3.543-.974-.177.8C166.115,165.2,166.2,165.293,166.2,164.673Zm-13.729-3.1c-2.392-1.063-3.1-1.063-3.1,0,0,.531,1.063.886,2.48.8C153.98,162.37,154.068,162.282,152.474,161.573Zm15.5.443a9.228,9.228,0,0,0-2.657-1.772c-3.366-1.683-3.543-.974-.177.8C167.886,162.548,167.975,162.636,167.975,162.016ZM153.8,157.587a9.713,9.713,0,0,0-2.746-1.86c-1.506-.709-2.48-.974-2.126-.354a6.809,6.809,0,0,0,2.569,1.772C153.891,158.119,153.8,158.119,153.8,157.587Zm-6.2-3.455c0-.531-10.806-6.82-11.161-6.466-.266.177,10.275,6.732,10.984,6.82.089,0,.177-.177.177-.354Zm10.186-8.149c-2.126-1.594-7.352-4.429-6.466-3.455.886.886,7.175,4.783,7.795,4.783C159.383,147.312,158.763,146.692,157.789,145.984ZM130.773,144.3a14.136,14.136,0,0,0-3.543-2.214c-1.949-.974-3.543-1.594-3.543-1.329a14.28,14.28,0,0,0,3.366,2.126C130.773,144.921,130.773,144.921,130.773,144.3Zm-9.743-5.758c-2.126-1.683-3.543-2.214-3.543-1.329,0,.443,4.517,3.012,5.315,3.012C123.066,140.226,122.269,139.517,121.029,138.543Z" transform="translate(-113.5 -65.024)" fill="#009dff"/>
        <path id="Path_976" data-name="Path 976" d="M136.106,79.473c-5.315-3.189-10.1-5.846-10.452-6.023-.443-.089-.443-1.329-.177-2.657.531-1.949,2.746-3.632,11.338-8.592,5.935-3.366,11.161-6.2,11.692-6.2.443,0,5.846,2.923,11.958,6.466,7.972,4.606,11.161,6.909,11.338,8.238.177,1.506-1.683,3.012-10.541,8.149-6.023,3.632-11.781,6.378-13.109,6.378-1.24,0-6.643-2.657-12.047-5.758Z" transform="translate(-114.847 -56)" fill="#009dff"/>
      </g>
      <g id="Group_20" data-name="Group 20" transform="translate(17.715 17.005)">
        <path id="Path_977" data-name="Path 977" d="M305.34,269.786a13.163,13.163,0,0,0-2.746-1.772A2.94,2.94,0,0,1,301,265.092V262.7l2.037,1.772a32.218,32.218,0,0,0,3.986,3.1c1.683,1.151,1.772,1.506.709,2.392-.974.8-1.506.8-2.392-.177Z" transform="translate(-152.19 -96.615)" fill="#00ecc6"/>
        <path id="Path_978" data-name="Path 978" d="M309.729,269.681c.709-.709.089-1.594-2.746-3.366a32.794,32.794,0,0,1-4.96-3.809c-1.063-1.329-.886-1.506,2.037-1.506,1.949,0,3.454.531,3.72,1.24a3.851,3.851,0,0,0,2.657,1.772c1.772.443,2.126,1.152,2.126,3.632,0,2.569-.354,3.1-1.949,3.1-1.506,0-1.683-.266-.886-1.063Z" transform="translate(-152.239 -96.421)" fill="#00ecc6"/>
        <path id="Path_979" data-name="Path 979" d="M384,267.1c0-2.392.354-3.012,1.772-3.012.974,0,1.772-.62,1.772-1.329,0-.8.8-1.329,2.214-1.329,1.772,0,2.214-.443,2.214-2.214s.443-2.214,2.214-2.214c1.24,0,2.214.354,2.214.8,0,1.329-4.163,5.846-7.44,8.149-1.772,1.152-3.189,2.48-3.189,2.923,0,.354,1.329-.266,2.923-1.417,4.606-3.543,5.049-3.632,5.049-1.683,0,1.24-.531,1.86-1.772,1.86-.974,0-1.772.531-1.772,1.151,0,.709-1.152,1.152-3.1,1.24C384.177,270.109,384,269.932,384,267.1Z" transform="translate(-161.671 -95.964)" fill="#00ecc6"/>
        <path id="Path_980" data-name="Path 980" d="M327.988,259.1a87.505,87.505,0,0,1-21.259-6.82c-2.923-1.506-5.58-2.834-5.935-3.012-.443-.177-.709.886-.709,2.392,0,3.454-.974,3.454-2.923.177-1.683-2.923-1.949-5.4-.62-5.4.531,0,.266-.974-.443-2.126-1.063-1.683-1.329-3.632-1.063-8.238.177-3.277.177-4.96,0-3.543-.709,4.252-2.037,2.569-2.037-2.48,0-3.72.266-4.872,1.329-4.872a1.466,1.466,0,0,1,1.329,1.506c0,.886.974,0,2.3-2.126,2.746-4.163,10.629-9.744,15.147-10.541,2.037-.354,2.923-.974,2.569-1.772-.886-2.214,2.569-1.329,5.137,1.329,2.126,2.214,5.846,4.252,10.541,5.758,1.063.354,1.506,1.417,1.506,3.454,0,2.746-.354,3.189-3.9,4.517-4.429,1.683-7,4.163-6.555,6.378.354,1.86,2.48,2.746,2.48,1.063,0-1.417,7-3.366,12.046-3.366,3.189,0,4.34,2.214,1.506,2.923-1.506.354-1.506.443,0,.531,2.3.177,1.86,2.746-.443,2.746a27.381,27.381,0,0,0-5.58.974l-3.543,1.063,3.543,1.24a33.021,33.021,0,0,0,17.627.354l4.429-1.329-3.1-1.063a19.125,19.125,0,0,0-5.4-1.151c-2.746-.089-3.454-2.392-.886-3.012,1.417-.354,1.417-.443,0-.532a1.562,1.562,0,0,1-1.594-1.417c0-1.86,5.669-1.772,12.312.354,4.517,1.417,5.4,1.506,5.4.354,0-1.772-4.075-5.315-7.618-6.466-2.569-.886-3.012-1.417-3.012-3.9,0-2.569.354-3.012,3.543-4.075a23.189,23.189,0,0,0,7-4.163c3.543-2.923,6.909-3.986,6.023-1.772-.266.8,1.506,2.126,5.049,3.9,10.718,5.315,14.084,9.743,15.058,20.284.974,10.364,1.24,10.009-12.312,16.741-8.946,4.429-16.21,5.757-31.445,5.58-7.086,0-14-.266-15.5-.443Zm19.487-14.261c2.48-.531.886-.709-5.758-.709-5.669,0-8.061.177-6.2.62A31.951,31.951,0,0,0,347.475,244.835Zm-20.993-3.366c-1.417-.709-2.48-1.506-2.48-1.772s1.683-1.24,3.809-2.126c2.037-.974,3.189-1.772,2.569-1.772-1.683,0-7,2.3-7.618,3.455-.531.886,3.366,3.543,5.226,3.543C328.52,242.8,327.811,242.177,326.482,241.469Zm32.065.089a9.227,9.227,0,0,0,2.657-1.772c0-.709-5.492-3.277-6.023-2.746-.266.266-.089.531.354.531a5.546,5.546,0,0,1,2.569,1.24c1.594,1.152,1.506,1.24-.974,2.569-3.277,1.86-2.037,1.949,1.417.177ZM352.79,235.8a11.4,11.4,0,0,0-3.986-.709c-2.037,0-1.949.089.443.709C352.967,236.774,355,236.774,352.79,235.8Z" transform="translate(-151.276 -90.708)" fill="#00ecc6"/>
        <path id="Path_981" data-name="Path 981" d="M396.848,261.863c2.392-4.163,2.746-4.34,2.746-1.329,0,2.3-.354,2.834-1.772,2.834C396.317,263.369,396.14,263.1,396.848,261.863Z" transform="translate(-163.093 -96.133)" fill="#00ecc6"/>
        <path id="Path_982" data-name="Path 982" d="M293.53,257.555c-.886-2.214-.62-6.555.354-6.555.531,0,.886.709.886,1.594a14.045,14.045,0,0,0,1.24,3.986c1.24,2.214,1.151,2.392-.354,2.392A2.348,2.348,0,0,1,293.53,257.555Z" transform="translate(-151.275 -95.279)" fill="#00ecc6"/>
        <path id="Path_983" data-name="Path 983" d="M401,251.329c0-.709.443-1.329.886-1.329.531,0,.886.62.886,1.329s-.354,1.329-.886,1.329C401.443,252.657,401,252.037,401,251.329Z" transform="translate(-163.613 -95.165)" fill="#00ecc6"/>
        <path id="Path_984" data-name="Path 984" d="M295,223.153c0-3.632,13.552-12.667,17.893-11.958,1.683.266,1.063.886-3.543,3.189a48.493,48.493,0,0,0-9.389,6.466C295.886,224.57,295,224.924,295,223.153Z" transform="translate(-151.505 -90.728)" fill="#00ecc6"/>
        <path id="Path_985" data-name="Path 985" d="M184.714,187.337c2.923-1.683,4.429-1.683,4.429,0,0,.974-.974,1.329-3.277,1.329l-3.366-.089Z" transform="translate(-138.654 -87.863)" fill="#00ecc6"/>
        <path id="Path_986" data-name="Path 986" d="M183,184.214c0-1.949.354-2.214,3.189-2.214,3.9,0,3.72,1.594-.354,3.277-2.746,1.151-2.834,1.063-2.834-1.063Z" transform="translate(-138.711 -87.397)" fill="#00ecc6"/>
        <path id="Path_987" data-name="Path 987" d="M158.687,181.55c0-.354-1.417-1.24-3.1-1.86s-3.1-1.417-3.1-1.86c0-.354-.974-.974-2.214-1.24-1.24-.354-2.214-1.152-2.214-1.86,0-.8-.886-1.329-2.214-1.329-1.417,0-2.214-.532-2.214-1.329a1.586,1.586,0,0,0-1.683-1.329c-2.657,0-4.517-.974-4.517-2.3,0-.709-.886-1.24-2.214-1.24-1.949,0-2.214-.354-2.214-3.1,0-2.923.177-3.1,3.1-3.1,2.037,0,3.012.354,2.834,1.152-.089.62.886,1.152,2.3,1.329a5.52,5.52,0,0,1,3.543,2.037,4.036,4.036,0,0,0,3.012,1.683c1.24,0,2.037.531,2.037,1.329s.8,1.329,2.126,1.329a5.472,5.472,0,0,1,3.366,1.152,18.084,18.084,0,0,0,3.72,2.392c5.226,2.657,5.846,3.1,5.846,4.163,0,1.417-1.24,1.417-3.809.177-1.683-.8-1.594-.62.266.886a9.559,9.559,0,0,0,2.923,1.86c.354,0,.62.443.62.886,0,.531-1.417.886-3.1.886S158.687,181.9,158.687,181.55Zm-.443-5.4c-1.772-1.683-22.056-13.375-22.764-13.2-.62.266,22.144,13.907,23.207,14C158.865,176.944,158.687,176.59,158.245,176.147Z" transform="translate(-133 -84.998)" fill="#00ecc6"/>
        <path id="Path_988" data-name="Path 988" d="M182,176.353c0-1.417.354-1.772,1.594-1.329,1.417.531,1.417.443,0-.709-2.126-1.594-1.949-2.48.443-2.126,1.063.177,1.86.8,1.772,1.417-.177.531.354,1.063,1.063,1.063s1.329.8,1.329,1.772c0,1.417-.62,1.772-3.1,1.772C182.531,178.213,182,177.859,182,176.353Z" transform="translate(-138.597 -86.268)" fill="#00ecc6"/>
        <path id="Path_989" data-name="Path 989" d="M395.749,124.537c-5.58-1.683-9.744-4.96-10.275-8.061-.62-3.1-.177-4.252,6.555-18.867,2.037-4.34,4.075-8.769,4.429-9.744,2.214-5.492,6.112-12.4,7.263-12.667,1.152-.177,7,10.452,7,12.844a1.659,1.659,0,0,0,.709,1.329c.354.177,3.012,5.58,5.846,12.047,4.163,9.566,4.96,12.312,4.517,14.615-.8,3.632-1.772,4.783-5.935,6.909C411.781,124.98,400.266,125.955,395.749,124.537Z" transform="translate(-161.816 -75.198)" fill="#00ecc6"/>
      </g>
      <g id="Group_21" data-name="Group 21" transform="translate(0.347 70.147)">
        <path id="Path_990" data-name="Path 990" d="M321.9,321.865c-20.55-3.1-39.594-10.275-49.16-18.513-6.732-5.846-9.655-10.009-9.743-13.641V286.7l2.037,3.632c7.352,13.729,26.928,24.27,53.766,29.053,12.932,2.392,35.785,2.126,48.1-.443,20.638-4.252,38.8-14.527,44.111-24.89,1.683-3.366,2.126-3.632,2.392-2.037,1.063,6.643-11.869,17.715-28.168,24-12.312,4.783-18.69,5.669-40.3,5.935-11.161.177-21.524.089-23.03-.089Z" transform="translate(-130.48 -152.499)" fill="#00c3f9"/>
        <path id="Path_991" data-name="Path 991" d="M324.574,314.673c-32.331-4.872-54.741-17.361-60.144-33.482-1.86-5.58-1.772-6.555.354-12.667,1.949-5.492,6.643-10.984,13.109-15.412,4.34-2.923,10.364-6.112,11.515-6.112.443,0,1.24,2.126,1.86,4.695,1.151,5.226,3.189,7.883,9.035,12.312l4.075,3.012-2.037,2.569c-3.277,4.163-3.543,8.592-.886,13.2,3.986,6.82,11.426,10.984,24,13.375,23.473,4.429,48.009-3.189,51.818-16.121,1.063-3.366.974-4.075-.886-7.529-1.063-2.126-2.3-4.075-2.835-4.34-.443-.266.886-1.683,2.923-3.1,4.429-3.012,8.769-9.478,8.769-12.932,0-1.329.177-2.48.443-2.48,1.24,0,10.1,4.96,13.287,7.352,14.881,11.249,17.627,26.75,6.555,37.734-7.972,7.972-19.664,13.907-35.342,17.893-6.2,1.594-10.629,1.949-25.245,2.126-9.744.177-18.867.089-20.373-.089Z" transform="translate(-130.493 -147.965)" fill="#00c3f9"/>
        <path id="Path_992" data-name="Path 992" d="M383.144,286.948c-.8-.443-.531-1.152,1.063-2.657a18.255,18.255,0,0,0,3.277-4.606c.886-2.214.8-3.1-.62-5.669-.886-1.683-1.949-3.1-2.3-3.1-.443,0-.709-1.329-.709-3.012,0-2.48.62-3.366,3.72-5.492,4.34-3.012,8.681-9.478,8.681-12.932,0-1.329.354-2.48.8-2.48,1.329,0,0,8.238-1.86,11.249a24.635,24.635,0,0,1-5.669,5.758c-2.126,1.506-3.9,2.923-3.9,3.189a15.256,15.256,0,0,0,1.86,2.923c2.48,3.543,3.1,8.681,1.417,11.958-1.772,3.543-4.429,5.758-5.758,4.872Z" transform="translate(-144.154 -147.965)" fill="#00c3f9"/>
        <path id="Path_993" data-name="Path 993" d="M307.5,283.769a11.7,11.7,0,0,1,.354-15.324l2.214-2.3-4.695-3.1c-7.352-4.96-10.806-11.692-10.186-19.664.354-4.252.974-3.189,2.3,3.986,1.151,6.023,3.1,8.946,9.035,13.109,5.137,3.632,5.669,6.466,2.214,10.984-2.835,3.809-2.835,5.669.443,10.1,3.012,4.252,3.189,4.606,1.417,4.606C309.895,286.16,308.477,285.1,307.5,283.769Z" transform="translate(-134.149 -147.265)" fill="#00c3f9"/>
        <path id="Path_994" data-name="Path 994" d="M248.189,273.369a34.9,34.9,0,0,1,1.594-9.566l1.683-4.606-17.8.266c-19.31.354-27.548-.443-39.505-3.809-9.832-2.834-24.182-10.1-29.319-14.792-5.137-4.872-8.858-11.161-8.149-13.818.443-1.86.62-1.772,2.126,1.506,8.592,19.221,46.5,32.6,82.908,29.408a128.663,128.663,0,0,0,13.375-1.594c2.037-.532,2.037-.443-.709,3.809-3.189,5.049-4.429,9.123-4.429,14.35,0,2.037-.354,3.72-.886,3.72-.443,0-.886-2.214-.886-4.872Z" transform="translate(-118.327 -145.545)" fill="#00c3f9"/>
        <path id="Path_995" data-name="Path 995" d="M208.5,248.788c-15.59-2.835-33.128-10.275-40.834-17.45-7.972-7.529-11.161-16.564-8.769-25.067,1.86-6.643,10.1-14.7,20.373-19.93,12.047-6.112,32.774-10.629,49.16-10.629h6.2l.177,5.757c.089,4.34-.177,5.758-1.063,5.758a2.062,2.062,0,0,1-1.772-.886c-.8-1.329-3.632-1.063-4.872.443-.974,1.152-.8,1.86.8,4.075,1.152,1.506,1.86,2.834,1.683,2.923-.089.089-3.455.709-7.352,1.329-17.007,2.657-29.142,12.047-27.459,21.081.62,3.632,4.783,8.5,9.744,11.338,5.315,3.189,16.387,5.758,24.27,5.758,7.263,0,13.375-.8,13.375-1.683,0-.266-4.695-3.277-10.364-6.643-5.758-3.366-11.781-6.909-13.464-7.972l-3.1-1.772,2.657-1.151c2.569-1.063.974-1.683-1.772-.62s-1.329,3.012,5.049,6.643c3.454,2.037,9.212,5.315,12.578,7.352l6.2,3.543-4.429.709c-6.732,1.152-20.816-.531-20.816-2.392,0-.886,1.063-.8,5.4.177a37.813,37.813,0,0,0,9.478.974l4.075-.266-7.529-4.34c-14.084-8.238-13.2-7.44-13.2-10.718,0-3.366.709-3.72,11.781-5.758l5.049-.974v-5.758c0-3.1-.354-5.669-.8-5.669s-3.543.531-6.909,1.24c-8.238,1.772-15.678,5.315-20.284,9.832-4.872,4.606-5.049,7.086-.8,11.869,1.86,2.037,2.746,3.72,2.3,4.075-1.683.974-4.34-1.24-6.289-5.315-2.392-4.96-1.506-8.326,3.366-13.109,5.935-5.758,20.9-10.895,29.851-10.186,3.9.266,3.9.266,5.315-3.366a17.675,17.675,0,0,0,.8-8.858c-.531-4.96-.531-5.137.886-3.454,1.506,1.772,1.506,1.772.62-.177-1.329-2.657-1.24-4.34.443-5.935,1.772-1.86,4.606-1.772,6.909.089l1.86,1.594-1.772-2.037a4.211,4.211,0,0,0-4.163-1.772c-3.012.443-3.1-.177-.354-2.746,2.834-2.657,7.529-3.632,12.489-2.569,4.429.974,11.692,5.492,13.2,8.238.531.886,1.506,2.214,2.037,2.923,2.3,2.392,3.012,7.883,2.746,19.664-.266,11.072-.354,11.958-1.949,11.958-2.3,0-3.986-2.657-2.569-4.075.8-.8,1.417-.8,2.48.089,1.949,1.594,1.772-1.063-.177-3.277-.886-.886-1.24-1.24-.886-.62.974,1.506-3.366,5.758-5.4,5.226-.8-.266-.177.177,1.417.886,1.506.709,2.835,1.772,2.835,2.214,0,.531.974.886,2.214.886,2.746,0,2.923,2.3.443,7.972-1.063,2.392-1.24,3.277-.443,2.3a11.325,11.325,0,0,0,1.594-2.569c.266-.974,9.478,2.126,9.478,3.277,0,.709-2.126.443-7.44-.886-3.986-.974-2.657,1.683,2.126,4.252,2.48,1.417,4.429,3.1,4.429,3.809,0,1.86-.177,1.772-6.466-2.037l-5.492-3.366-3.012,2.037c-4.34,2.923-7.263,2.569-16.033-2.037-7.618-3.9-10.984-7-13.375-12.135-.8-1.772-1.329-2.037-2.48-1.417a40.881,40.881,0,0,1-6.732,2.126c-3.72.886-4.252,1.152-1.772.886a55.5,55.5,0,0,0,6.289-.974c2.392-.443,3.012-.177,4.783,2.3,1.949,2.657,1.949,3.012.62,3.986-3.543,2.569-.709,5.846,3.72,4.34,1.86-.709,3.455-.266,8.946,2.569,4.075,2.126,7.175,4.429,8.149,6.023.886,1.417,2.126,2.569,2.835,2.569,1.683,0,3.454-2.392,2.923-3.9-.354-.886.443-1.772,2.214-2.746,3.72-1.772,3.9-1.772,9.3,1.506,6.82,4.163,6.466,5.758-2.126,10.452a80.665,80.665,0,0,0-10.629,6.732c-3.1,2.569-4.783,3.189-10.186,3.9-9.212,1.151-34.545.886-42.34-.443Zm52.881-26.307c1.594-.62,2.923-1.594,2.923-2.214a1.277,1.277,0,0,1,1.329-1.152c.8,0,1.329-.8,1.329-1.949a19.64,19.64,0,0,1,.531-3.986c.531-1.772.266-2.037-2.126-2.037-4.34,0-5.492-.8-5.492-3.986a4.973,4.973,0,0,1,2.214-4.517,5.185,5.185,0,0,0,2.214-4.075c0-2.126.354-2.48,2.657-2.48,2.657,0,2.657-.089,2.657-4.783,0-5.049-.62-5.846-4.872-5.846-1.417,0-2.48.8-3.277,2.48-.886,1.86-1.86,2.48-4.517,2.657l-3.277.266.089-3.809c0-2.126.266-3.277.531-2.657.531,1.506,2.923,1.329,2.923-.177a2.239,2.239,0,0,0-1.329-1.772c-1.417-.531-1.86-4.075-.531-4.075.531,0,1.506.886,2.214,1.949.8,1.063,1.417,1.506,1.417.974s-.974-1.772-2.214-2.746a7.667,7.667,0,0,1-2.214-2.3c0-.266.974-.531,2.214-.531,1.329,0,2.214-.531,2.214-1.24a6.673,6.673,0,0,1,.531-2.569c.354-.974-.531-1.417-3.366-1.772-2.126-.354-4.872-.8-6.2-1.152-2.037-.443-2.3-.354-1.86,1.329.266,1.063.8,1.86,1.24,1.86s.8.8.8,1.772a1.59,1.59,0,0,0,1.772,1.772c2.392,0,2.214.62-.886,3.277-1.417,1.151-2.657,3.012-2.657,3.986,0,1.772-.089,1.772-1.772.266-1.329-1.24-1.506-1.949-.8-3.277s.709-1.683,0-1.24c-.531.354-.974,0-.974-.709,0-1.594-2.657-3.189-5.4-3.189-1.86,0-1.86.089.62,2.214,1.417,1.24,3.1,2.214,3.72,2.214a.783.783,0,0,1,.8,1.152c-.177.531-1.506.974-2.923.886s-1.86.089-.974.266c1.86.62,2.037,3.012.177,3.012-.974,0-1.329,1.063-1.329,4.34,0,2.834-.531,4.872-1.417,5.758-.886.974-1.594,3.809-1.86,8.149-.531,6.289-.443,6.643,1.417,7.175a2.334,2.334,0,0,1,1.86,2.126c0,.974.531,1.683,1.24,1.683a3.767,3.767,0,0,1,2.48,1.594,10.561,10.561,0,0,0,4.075,2.746c1.506.62,2.835,1.683,2.835,2.392,0,2.834,5.935,3.9,11.249,1.949Zm5.58-41.9c0-1.594-.886-2.746-2.835-3.986-4.075-2.48-4.695-1.329-1.506,2.746,3.189,3.986,4.34,4.34,4.34,1.24Z" transform="translate(-118.501 -138.681)" fill="#00c3f9"/>
        <path id="Path_996" data-name="Path 996" d="M254.543,195.086c0-.443-.8-.886-1.772-.886-1.417,0-1.772-.62-1.772-3.1,0-2.126.443-3.1,1.329-3.1a1.362,1.362,0,0,1,1.329,1.329,3.294,3.294,0,0,0,1.683,2.214c2.214,1.152,2.392,1.152,3.986-.531,1.329-1.24,1.417-1.063,1.417,1.772,0,3.012-.177,3.189-3.1,3.189C255.96,195.972,254.543,195.618,254.543,195.086Z" transform="translate(-129.11 -141.225)" fill="#00c3f9"/>
        <path id="Path_997" data-name="Path 997" d="M257,189.831c0-1.506.177-1.683,1.24-.709,1.24,1.152,1.063,2.48-.443,2.48C257.354,191.6,257,190.8,257,189.831Z" transform="translate(-129.795 -141.284)" fill="#00c3f9"/>
        <path id="Path_998" data-name="Path 998" d="M261,183.72c0-.886,2.923-3.72,3.9-3.72.354,0,.531.886.354,2.037a2.457,2.457,0,0,1-2.214,2.214C261.886,184.429,261,184.163,261,183.72Z" transform="translate(-130.252 -140.311)" fill="#00c3f9"/>
        <path id="Path_999" data-name="Path 999" d="M345.753,247.687a23.9,23.9,0,0,0-6.82-.531c-1.594.089-2.923,0-2.923-.354,0-.266-1.063-.8-2.392-1.063a10.919,10.919,0,0,1-4.252-1.86c-1.683-1.24-1.594-1.329,2.3-3.1,7.883-3.543,22.144-3.277,29.5.531,2.569,1.329,2.569,1.417.886,2.657a11.384,11.384,0,0,1-4.075,1.772c-1.417.266-2.48.8-2.48,1.063,0,.354-1.506.443-3.277.266-2.569-.177-3.012-.089-2.037.62C351.687,248.75,351.244,248.75,345.753,247.687Z" transform="translate(-137.942 -146.968)" fill="#00c3f9"/>
        <path id="Path_1000" data-name="Path 1000" d="M325,240.777c0-2.48,7.352-4.96,16.387-5.492,12.046-.709,24.359,2.037,24.359,5.492,0,1.506-1.417,1.772-2.214.443-.266-.443-3.1-1.683-6.289-2.657-9.478-2.923-21.347-2.037-29.319,2.126C325.266,242.017,325,242.017,325,240.777Z" transform="translate(-137.563 -146.614)" fill="#00c3f9"/>
        <path id="Path_1001" data-name="Path 1001" d="M291.012,219.917c-1.949-.709-3.543-1.329-3.543-1.329s-.089-7.795-.177-17.361c-.177-13.464,0-17.184.886-16.83.531.266,1.86.8,2.835,1.152,3.9,1.329,17.007,8.326,19.133,10.275,1.949,1.772,2.392,3.1,2.746,7.618l.354,5.58-5.226,2.569a48.391,48.391,0,0,0-8.946,6.2,44.952,44.952,0,0,1-4.163,3.455C294.733,221.157,292.961,220.625,291.012,219.917Z" transform="translate(-133.248 -140.811)" fill="#00c3f9"/>
        <path id="Path_1002" data-name="Path 1002" d="M318.631,211.229a42.708,42.708,0,0,1-.531-7.972l.177-5.758.8,6.2C319.96,210.787,319.783,214.95,318.631,211.229Z" transform="translate(-136.774 -142.31)" fill="#00c3f9"/>
        <path id="Path_1003" data-name="Path 1003" d="M160.694,198.73c-.8-2.037,8.238-9.743,16.121-13.818,7.175-3.632,26.13-9.3,27.725-8.326,1.683,1.063.443,1.949-3.366,2.569-11.249,1.683-26.839,8.946-34.9,16.121C162.731,198.553,160.959,199.616,160.694,198.73Z" transform="translate(-118.789 -139.909)" fill="#00c3f9"/>
        <path id="Path_1004" data-name="Path 1004" d="M240.936,195.986c-1.329-1.683.177-3.986,2.657-3.986,1.417,0,1.506.354.62,2.657C243.062,197.669,242.531,197.846,240.936,195.986Z" transform="translate(-127.904 -141.682)" fill="#00c3f9"/>
        <path id="Path_1005" data-name="Path 1005" d="M147.667,173.641C140.4,169.3,135,165.492,135,164.783s.266-1.152.709-.974c.354.177,6.909,4.075,14.615,8.5,13.818,8.061,14,8.149,16.21,6.732,1.24-.8,2.126-1.594,1.949-1.772-1.86-1.86-27.016-15.5-28.433-15.412-1.772.089-1.772.089.266.8,3.632,1.063,26.573,14.7,25.953,15.324-1.329,1.417-4.075.177-16.564-7.352-7.263-4.429-13.552-7.972-13.907-7.972-.443,0-.8-.62-.8-1.329,0-.974,1.063-1.329,4.429-1.329,3.986,0,5.935.8,17.361,7.352l12.755,7.263-.177,3.1c-.266,3.1-.354,3.1-4.695,3.277-4.163.266-5.226-.177-17.007-7.352Z" transform="translate(-115.86 -138.027)" fill="#00c3f9"/>
        <path id="Path_1006" data-name="Path 1006" d="M166.634,169.209c-3.9-2.214-12.047-7-18.158-10.541s-12.578-7.263-14.438-8.326-6.289-3.543-9.743-5.58c-3.543-1.949-7.529-4.163-8.858-4.872-2.392-1.329-2.834-3.632-.531-3.1.62.177,8.149,4.34,16.653,9.212,49.16,28.256,44.466,25.776,47.477,24.624,2.037-.8,2.3-.709,2.037.62-.177,1.152-1.24,1.683-3.809,1.86-2.834.177-4.96-.62-10.629-3.9Z" transform="translate(-113.391 -135.367)" fill="#00c3f9"/>
        <path id="Path_1007" data-name="Path 1007" d="M169.532,166.378c-3.9-2.3-12.047-7-18.158-10.541s-12.578-7.263-14.438-8.326-6.289-3.543-9.744-5.58c-3.543-1.949-7.529-4.252-9.035-5.049l-2.657-1.417,2.392-.266c1.86-.177,9.123,3.543,28.788,14.97,14.527,8.415,27.548,15.855,28.965,16.653,2.48,1.417,3.189,2.923,1.683,3.366-.354.089-3.9-1.594-7.795-3.809Z" transform="translate(-113.632 -135.193)" fill="#00c3f9"/>
        <path id="Path_1008" data-name="Path 1008" d="M164.872,158.6c-14-8.061-19.4-11.515-18.778-12.312.62-.709,5.669,1.772,18.247,9.123,9.566,5.58,17.627,10.1,17.981,10.1,1.063,0,2.834,2.48,2.48,3.454C184.714,169.492,175.679,164.8,164.872,158.6Z" transform="translate(-117.121 -136.447)" fill="#00c3f9"/>
        <path id="Path_1009" data-name="Path 1009" d="M176.016,159.07c-9.743-5.669-19.841-11.6-22.321-13.109-2.569-1.417-4.695-3.189-4.695-3.809s.177-1.152.443-1.152c.177,0,10.718,6.023,23.3,13.287,19.487,11.338,23.473,13.287,26.662,13.287,1.949,0,3.632.443,3.632.886,0,.531-2.126.886-4.695.886-4.34,0-5.846-.709-22.321-10.275Z" transform="translate(-117.459 -135.857)" fill="#00c3f9"/>
        <path id="Path_1010" data-name="Path 1010" d="M179.129,156.32c-9.744-5.669-19.841-11.6-22.41-13.109-4.163-2.392-4.517-2.746-2.657-3.012,1.506-.177,9.389,3.809,24.447,12.4,12.224,7,22.233,12.932,22.321,13.375.089,2.214-6.112-.62-21.7-9.655Z" transform="translate(-117.914 -135.764)" fill="#00c3f9"/>
        <path id="Path_1011" data-name="Path 1011" d="M248,168.329A1.382,1.382,0,0,1,249.417,167c1.24,0,1.24.266.354,1.329a5.353,5.353,0,0,1-1.417,1.329C248.177,169.657,248,169.037,248,168.329Z" transform="translate(-128.767 -138.826)" fill="#00c3f9"/>
      </g>
      <g id="Group_22" data-name="Group 22" transform="translate(0.288 25.343)">
        <path id="Path_1013" data-name="Path 1013" d="M328.436,349.048c-3.189-.886-4.075-1.506-4.252-3.189-.354-2.037-.177-2.126,4.429-1.594a66.667,66.667,0,0,0,6.732.62c1.594,0,1.949.531,1.949,2.657,0,2.3-.266,2.657-2.392,2.569a35.94,35.94,0,0,1-6.466-1.063Z" transform="translate(-137.397 -114.239)" fill="#fe6bb7"/>
        <path id="Path_1014" data-name="Path 1014" d="M360,348.214c0-1.949.354-2.214,3.1-2.214,2.48,0,3.1.354,3.1,1.683a2.5,2.5,0,0,1-1.949,2.214C360.8,350.783,360,350.517,360,348.214Z" transform="translate(-141.502 -114.469)" fill="#fe6bb7"/>
        <path id="Path_1015" data-name="Path 1015" d="M372.986,288.34c-3.9-2.569-17.007-4.075-35.077-4.075-16.387.089-16.475.089-21.524,2.569-4.252,2.214-5.226,2.392-6.378,1.417-4.695-3.9-5.137-12.4-.886-16.83,2.214-2.3,2.3-2.569.709-3.455-3.1-1.772,5.138-1.063,10.364.886,14.97,5.669,35.785,5.669,49.249-.089,5.049-2.214,10.009-2.48,8.326-.443-.8.974-.709,1.772.886,3.986a11.988,11.988,0,0,1-1.506,16.121C375.555,289.846,375.378,289.846,372.986,288.34Z" transform="translate(-135.355 -105.438)" fill="#fe6bb7"/>
        <path id="Path_1016" data-name="Path 1016" d="M216.436,281.112a49.335,49.335,0,0,1-8.415-2.746,51.661,51.661,0,0,0-8.769-3.012c-19.044-4.96-34.722-14.97-39.771-25.422-2.214-4.429-3.9-17.273-3.012-22.056l.62-3.277,1.594,3.72c8.681,19.31,46.5,32.774,83,29.5a128.643,128.643,0,0,0,13.375-1.594c2.037-.531,2.037-.443-.709,3.809-3.1,4.96-4.429,9.123-4.429,14.261v3.72l-6.2.62c-4.872.443-6.023.8-5.315,1.683.709.8.531,1.24-.531,1.683C235.48,282.884,222.282,282.352,216.436,281.112Z" transform="translate(-118.226 -100.602)" fill="#fe6bb7"/>
        <path id="Path_1017" data-name="Path 1017" d="M284,231.276c-2.037-1.594-2.037-1.594-.443-4.429,1.772-3.1,2.214-3.277,4.783-1.949,2.214,1.24,2.214,3.543,0,3.543-1.152,0-1.86.709-2.037,2.214C286.032,232.782,285.944,232.782,284,231.276Z" transform="translate(-132.639 -100.547)" fill="#fe6bb7"/>
        <path id="Path_1018" data-name="Path 1018" d="M204.407,226.375c-9.3-9.3-1.063-20.639,18.424-25.687,7.795-1.949,15.324-2.214,15.412-.531,0,.531.354.266.8-.709.443-1.063.709,1.417.709,6.643,0,4.606-.177,7.972-.443,7.352-.266-.8-.886-.8-1.86-.266-.8.531-5.049,1.683-9.3,2.569-4.34.974-8.061,1.949-8.415,2.3-.266.266-.089,1.329.531,2.214,1.329,2.126,1.417,5.315.177,5.315-.443,0-.886-.62-.886-1.329,0-1.949-1.772-1.683-7.618,1.329-2.834,1.417-5.315,2.657-5.4,2.657A10.713,10.713,0,0,1,204.407,226.375Z" transform="translate(-123.292 -97.683)" fill="#fe6bb7"/>
        <path id="Path_1019" data-name="Path 1019" d="M280,228.392c0-1.506.443-2.392,1.329-2.392,1.683,0,1.683.8,0,3.012C280.089,230.695,280,230.695,280,228.392Z" transform="translate(-132.364 -100.762)" fill="#fe6bb7"/>
        <path id="Path_1020" data-name="Path 1020" d="M338.381,225.589c-.709-.177-2.923-.62-4.872-.886-3.189-.531-3.366-.709-1.949-1.772,1.506-1.063,1.152-1.417-3.632-3.543-7.352-3.277-9.212-5.492-9.743-11.515-.531-5.935.62-6.289,6.378-1.86,5.935,4.517,11.958,6.289,21.347,6.289,6.909-.089,8.592-.354,12.844-2.569a38.146,38.146,0,0,0,6.732-4.163c3.189-2.923,4.429-2.214,4.695,2.834.177,4.075-.089,4.695-2.923,7.44a27.8,27.8,0,0,1-7.263,4.517c-3.809,1.506-3.986,1.594-2.126,2.569,1.772.974,1.772,1.151.443,1.594C356.539,225.234,340.329,226.12,338.381,225.589Z" transform="translate(-136.712 -98.136)" fill="#fe6bb7"/>
        <path id="Path_1021" data-name="Path 1021" d="M337.087,208.3c0-.886-.886-1.329-2.48-1.329a5.813,5.813,0,0,1-3.543-1.063c-1.329-1.329-1.417-8.149-.177-10.452,2.392-4.429,18.867-5.758,26.219-2.126,3.455,1.683,3.455,1.683,3.455,6.909,0,4.252-.354,5.4-1.772,6.2a7.652,7.652,0,0,0-2.3,1.772,11.372,11.372,0,0,1-4.695,1.152l-4.075.531v-2.834c0-2.3-.354-2.746-2.214-2.746s-2.214.443-2.214,2.657c0,2.48-.266,2.657-3.1,2.657C338.062,209.628,337.087,209.185,337.087,208.3Z" transform="translate(-138.076 -96.791)" fill="#fe6bb7"/>
        <path id="Path_1022" data-name="Path 1022" d="M163.526,182.422c0-3.189.443-5.492,1.329-6.466,1.152-1.24,0-2.126-12.135-9.212-12.489-7.175-13.641-7.706-16.918-7.086l-3.543.531,1.949,1.506c2.48,1.86,2.392,7.44-.089,7.883-.974.177-1.594-.266-1.594-.974,0-1.152-9.212-7.175-16.387-10.806-1.506-.8-1.86-2.214-2.48-10.541-.443-5.315-.443-9.921,0-10.364.62-.62,8.415,3.632,47.212,25.953,7.529,4.34,14.615,7.972,15.767,8.061,1.86.177,2.037.531,1.772,4.517-.266,4.075-.443,4.34-4.252,6.466-2.214,1.24-5.315,2.923-6.909,3.9a21.5,21.5,0,0,1-3.366,1.683c-.177,0-.354-2.3-.354-5.049Z" transform="translate(-113.325 -90.577)" fill="#fe6bb7"/>
        <path id="Path_1023" data-name="Path 1023" d="M252,188.978c0-2.48.266-3.012.886-2.037a6.632,6.632,0,0,1,.886,2.923,1.466,1.466,0,0,0,1.329,1.506c.709,0,1.329-.8,1.329-1.772s.443-1.772.886-1.772c1.417,0,.974,3.277-.531,3.9C253.24,193.053,252,192.344,252,188.978Z" transform="translate(-129.165 -96.248)" fill="#fe6bb7"/>
        <path id="Path_1024" data-name="Path 1024" d="M263,186.1c0-3.012.089-3.1,3.454-3.1,4.252,0,5.137,1.152,3.277,3.986a4.527,4.527,0,0,1-4.075,2.214C263.177,189.2,263,188.935,263,186.1Zm6.2.089a2.239,2.239,0,0,0-1.329-1.772c-.886-.354-1.329.089-1.329,1.24,0,.974.62,1.772,1.329,1.772A1.287,1.287,0,0,0,269.2,186.189Z" transform="translate(-130.422 -95.85)" fill="#fe6bb7"/>
        <path id="Path_1025" data-name="Path 1025" d="M272.132,186.394c1.329-4.075,1.594-4.163,1.594-.443,0,2.3-.354,3.277-1.24,3.277C271.423,189.229,271.334,188.7,272.132,186.394Z" transform="translate(-131.404 -95.878)" fill="#fe6bb7"/>
        <path id="Path_1026" data-name="Path 1026" d="M200,175.017V170.5l4.783.266,4.872.354-.177,3.366c-.089,3.277-.177,3.277-4.783,4.163l-4.695.886v-4.517Z" transform="translate(-123.226 -94.422)" fill="#fe6bb7"/>
        <path id="Path_1027" data-name="Path 1027" d="M148.62,111c-.354-.354-.62-6.555-.62-13.818,0-12.312.089-13.109,1.594-12.312a3.213,3.213,0,0,0,3.1,0c1.417-.886,1.506-.089,1.329,12.667l-.266,13.552-2.214.266A4.49,4.49,0,0,1,148.62,111Z" transform="translate(-117.286 -84.612)" fill="#fe6bb7"/>
      </g>
      <g id="Group_23" data-name="Group 23" transform="translate(10.698 14.507)">
        <path id="Path_1028" data-name="Path 1028" d="M326.776,343.478a52.26,52.26,0,0,1-10.629-2.923c-2.657-1.152-8.415-3.1-12.844-4.429-10.806-3.277-19.841-7.529-27.016-12.844C265.3,315.133,263,310.527,263,296.444V286.7l2.037,3.632c7.175,13.464,26.307,24,51.463,28.522a114.014,114.014,0,0,0,12.844,1.772c4.606,0,7.175.886,7.175,2.48,0,1.152-1.24,1.24-9.212.8a122.28,122.28,0,0,1-13.552-1.594c-17.981-4.252-31.445-9.212-31.976-11.781-.177-.886-1.24-1.417-2.657-1.417s-4.34-1.594-7.44-4.075c-2.835-2.214-5.137-3.632-5.137-3.189a32.01,32.01,0,0,0,1.417,4.783c.974,2.834,2.923,5.492,6.466,8.858,6.555,6.023,9.832,8.681,10.629,8.681a56.509,56.509,0,0,1,6.82,3.012c7.086,3.454,14.438,5.846,26.13,8.592,11.338,2.746,36.671,2.923,46.857.443,14.35-3.454,23.119-7,31.179-12.578,9.389-6.466,12.047-9.921,13.464-17.538l.709-3.543-2.923,2.835a15.7,15.7,0,0,1-4.96,3.366c-1.151.354-2.037.886-2.037,1.329,0,.974-7.706,4.96-14.615,7.618a104.137,104.137,0,0,1-29.408,6.2c-7.883.443-9.124.354-9.124-.8,0-1.594,2.569-2.48,7.618-2.48,9.832,0,29.851-5.935,40.214-11.869,6.378-3.632,13.907-10.452,15.59-14.084,2.834-6.023,3.277-4.96,2.834,6.112-.531,12.224-1.772,15.59-7.972,21.259-5.049,4.695-14.615,10.275-22.41,13.287-6.289,2.3-24.625,6.732-28.965,6.909-1.24.089-2.126.354-1.949.62.974,1.683-15.412,2.037-25.333.62Z" transform="translate(-140.832 -96.859)" fill="#bc81e3"/>
        <path id="Path_1029" data-name="Path 1029" d="M385.543,271.075a2.2,2.2,0,0,0-2.3-.8c-.8.266-1.24-.177-1.24-1.417,0-1.594.531-1.86,3.277-1.86,3.012,0,3.1.089,1.594,1.24-1.417,1.063-1.506,1.417-.531,2.657.62.8.974,1.417.709,1.417a4.395,4.395,0,0,1-1.506-1.24Z" transform="translate(-154.425 -94.609)" fill="#bc81e3"/>
        <path id="Path_1030" data-name="Path 1030" d="M311.257,269.657c.266-.443-.266-1.152-1.063-1.683-1.329-.8-1.151-.886,1.329-.974,3.189,0,3.986,2.126,1.063,2.923C311.611,270.189,310.991,270.012,311.257,269.657Z" transform="translate(-146.13 -94.609)" fill="#bc81e3"/>
        <path id="Path_1031" data-name="Path 1031" d="M227.251,262.283a9.1,9.1,0,0,1,3.1,0c.8.266.089.443-1.594.443S226.365,262.549,227.251,262.283Z" transform="translate(-136.705 -94.055)" fill="#bc81e3"/>
        <path id="Path_1032" data-name="Path 1032" d="M249.728,262.283a11.856,11.856,0,0,1,3.543,0c.8.266-.089.443-2.037.354C249.286,262.637,248.577,262.46,249.728,262.283Z" transform="translate(-139.253 -94.055)" fill="#bc81e3"/>
        <path id="Path_1033" data-name="Path 1033" d="M165.043,238.309,161.5,234.5l3.809,3.543c3.455,3.189,4.163,3.986,3.455,3.986A31.714,31.714,0,0,1,165.043,238.309Z" transform="translate(-129.238 -90.897)" fill="#bc81e3"/>
        <path id="Path_1034" data-name="Path 1034" d="M228.234,237.748a33.159,33.159,0,0,1-5.846-.974c-.089-.177-.443-4.075-.62-8.681-.266-4.606-.354-7.706-.089-6.909.177.886,3.189,3.189,6.555,5.137s9.035,5.226,12.578,7.263l6.378,3.809-3.986.62c-4.96.709-7.706.709-14.97-.266Zm5.226-3.543c-.709-.443-2.834-1.683-4.695-2.657l-3.455-1.772.354,2.037c.266,1.949,2.3,2.834,7.795,3.277C234.612,235.179,234.612,235.09,233.46,234.2Z" transform="translate(-136.094 -89.361)" fill="#bc81e3"/>
        <path id="Path_1035" data-name="Path 1035" d="M287.138,233.212c-2.835-1.683-5.138-3.543-5.138-4.163s.354-.531.974.266c.8,1.152.886,1.152.62,0-.354-2.214,1.152-5.315,2.48-5.315.8,0,1.063.443.709,1.063-.354.531-.266.709.266.443.443-.266,2.392-.089,4.163.443,3.189.974,3.366,1.152,2.835,4.163a45.531,45.531,0,0,0-.531,4.783C293.515,236.932,293.072,236.755,287.138,233.212Z" transform="translate(-143.003 -89.697)" fill="#bc81e3"/>
        <path id="Path_1036" data-name="Path 1036" d="M279,228.58c.089-2.746,1.86-5.58,3.454-5.58,1.506,0,1.152,1.683-.886,4.96C279.354,231.592,279,231.681,279,228.58Z" transform="translate(-142.66 -89.583)" fill="#bc81e3"/>
        <path id="Path_1037" data-name="Path 1037" d="M332.632,225.447c1.063-.62,1.772-1.417,1.417-1.683-.266-.354.266-.354,1.329-.089,3.277.8,2.214,2.923-1.417,2.923C330.772,226.51,330.684,226.51,332.632,225.447Z" transform="translate(-148.638 -89.639)" fill="#bc81e3"/>
        <path id="Path_1038" data-name="Path 1038" d="M359,225.937c0-1.506,1.24-1.683,3.986-.443l2.657,1.151-3.277.089C360.506,226.734,359,226.38,359,225.937Z" transform="translate(-151.798 -89.774)" fill="#bc81e3"/>
        <path id="Path_1039" data-name="Path 1039" d="M244.041,213.768c-.443-1.329-.886-1.594-1.594-.886a3.254,3.254,0,0,1-1.772.974c-.443,0-.089-.62.62-1.417a5.035,5.035,0,0,0,1.417-3.277c0-1.417-.266-1.594-.8-.8-.443.8-.709-.089-.709-2.48,0-2.569.266-3.366.8-2.48.531.709.62.089.354-1.949-.266-1.683-.266-2.569,0-1.86.443.886.886.443,1.683-1.329.974-2.214,1.063-1.329,1.063,7.44,0,5.4-.089,9.921-.266,9.921a4.6,4.6,0,0,1-.8-1.86Z" transform="translate(-138.26 -86.641)" fill="#bc81e3"/>
        <path id="Path_1040" data-name="Path 1040" d="M333.223,212.254c-5.669-1.594-8.858-3.189-12.489-6.289a7.974,7.974,0,0,1-.974-11.249c2.48-3.1,10.275-6.643,16.3-7.352,4.252-.531,4.96-.354,4.96.886,0,.8.709,1.417,1.772,1.417s1.772-.62,1.772-1.417c0-1.24.709-1.417,4.517-.886,9.3,1.24,17.273,5.4,19.841,10.275,2.835,5.492.974,8.681-7.529,12.932-4.252,2.126-6.112,2.48-14.172,2.746C340.929,213.494,336.412,213.14,333.223,212.254Zm30.648-8.681c2.48-2.3,2.48-3.366-.266-5.935L361.39,195.6v4.34c0,2.48-.531,4.96-1.063,5.58C358.645,207.382,361.3,205.788,363.871,203.573Zm-36.848-1.949a17.7,17.7,0,0,1,.531-5.758l.974-2.657-2.569,1.949a9.557,9.557,0,0,0-3.012,3.1c-.62,1.594.8,4.34,2.834,5.492.8.531,1.506.974,1.506.974a22.237,22.237,0,0,0-.266-3.1Zm13.2,1.417a11.772,11.772,0,0,0,7.618.089c3.012-.886,4.34-.886,5.226-.089,1.683,1.417,3.9-.531,3.9-3.277,0-2.657-2.923-4.517-9.035-5.846-4.163-.886-5.58-.8-10.1.709-4.163,1.329-5.4,2.214-6.023,4.075-1.152,3.189.62,5.492,3.1,4.163C336.057,202.245,337.74,202.333,340.22,203.042Z" transform="translate(-147.102 -85.48)" fill="#bc81e3"/>
        <path id="Path_1041" data-name="Path 1041" d="M165,189.3c0-6.732.177-7.529,1.417-7.086a4.342,4.342,0,0,0,3.454-.709c2.569-1.683,3.277-.443,2.48,4.34-.266,1.86-.089,3.543.354,3.9.443.266-1.063,2.037-3.455,3.9L165,196.921Z" transform="translate(-129.638 -84.762)" fill="#bc81e3"/>
        <path id="Path_1042" data-name="Path 1042" d="M254.457,193.419c-.974-1.417.354-2.126,2.037-1.063q2.392,1.462,3.986-2.392c.266-.709.531,0,.531,1.594.089,2.657-.089,2.834-2.923,2.834C256.406,194.393,254.723,193.951,254.457,193.419Z" transform="translate(-139.819 -85.778)" fill="#bc81e3"/>
        <path id="Path_1043" data-name="Path 1043" d="M257,189.86c0-1.063.531-1.86,1.417-1.86.8,0,1.24.62,1.063,1.506C259.037,191.72,257,191.986,257,189.86Z" transform="translate(-140.147 -85.585)" fill="#bc81e3"/>
        <path id="Path_1044" data-name="Path 1044" d="M178.219,181.724a3.123,3.123,0,0,0,1.506-2.126,1.362,1.362,0,0,1,1.329-1.329c.709,0,1.329-.8,1.329-1.772s-.62-1.772-1.329-1.772a1.287,1.287,0,0,1-1.329-1.24,1.794,1.794,0,0,0-1.063-1.594c-.62-.266.177-.443,1.772-.443,6.732,0,4.872-1.683-13.464-12.224-10.009-5.758-18.778-10.9-19.487-11.426-1.594-1.152-.974-5.492.886-6.2.709-.266,11.6,5.492,24.182,12.755,14.438,8.415,23.827,13.287,25.422,13.375,2.392,0,2.48.089.62.8-2.569,1.063-2.923,5.846-.443,6.466,1.152.354,1.063.443-.443.531-2.657.089-15.235,4.34-17.715,5.935a7.956,7.956,0,0,1-2.657,1.24C176.979,182.7,177.333,182.256,178.219,181.724Zm14.792-9.743c0-.709-2.834-2.569-3.9-2.569-.266,0-.531.974-.531,2.126,0,1.683.354,1.949,2.214,1.594C192.037,172.955,193.011,172.424,193.011,171.981Z" transform="translate(-127.533 -80.284)" fill="#bc81e3"/>
        <path id="Path_1045" data-name="Path 1045" d="M265,184.112c0-3.012.177-3.189,2.923-2.923,2.3.089,2.835.531,2.923,2.214.177,2.3,0,2.392-2.392,1.152-1.594-.886-2.126-.354-1.772,2.037,0,.354-.266.62-.8.62-.443,0-.886-1.417-.886-3.1Z" transform="translate(-141.061 -84.797)" fill="#bc81e3"/>
        <path id="Path_1046" data-name="Path 1046" d="M251,185.329c0-.709.443-1.329.886-1.329.531,0,.886.62.886,1.329s-.354,1.329-.886,1.329C251.443,186.657,251,186.037,251,185.329Z" transform="translate(-139.462 -85.128)" fill="#bc81e3"/>
        <path id="Path_1047" data-name="Path 1047" d="M252.59,182.968c-2.657-.709-1.86-2.657.974-2.569,2.126.089,2.392.354,1.772,1.683a7.233,7.233,0,0,1-1.063,1.417C254.185,183.411,253.388,183.234,252.59,182.968Z" transform="translate(-139.458 -84.717)" fill="#bc81e3"/>
        <path id="Path_1048" data-name="Path 1048" d="M137.233,104.462c-5.137-3.012-10.1-6.023-10.806-6.643-1.24-.974-1.417-3.189-1.329-13.109.089-6.466.531-12.047.974-12.312s5.58,2.214,11.426,5.58L148.039,84V97.111c0,7.175-.266,13.021-.62,13.021C146.976,110.043,142.459,107.563,137.233,104.462Zm7.263-9.389V87.19l-7.529-4.517c-4.163-2.392-7.795-4.429-8.061-4.429-.177,0-.266,3.72-.177,8.238l.266,8.149,7.086,4.163c3.9,2.392,7.352,4.252,7.795,4.252C144.23,103.045,144.5,99.5,144.5,95.073Z" transform="translate(-125.078 -72.378)" fill="#bc81e3"/>
        <path id="Path_1049" data-name="Path 1049" d="M152,98.287c0-8.238.354-13.287.886-13.287s.886,5.049.886,13.287-.354,13.287-.886,13.287S152,106.524,152,98.287Z" transform="translate(-128.153 -73.82)" fill="#bc81e3"/>
      </g>
      <g id="Group_24" data-name="Group 24" transform="translate(109.918 97.482)">
        <path id="Path_1050" data-name="Path 1050" d="M269.489,236.886c-.354-.531.443-.886,1.683-.886s2.3.443,2.3.886c0,.531-.8.886-1.683.886A2.8,2.8,0,0,1,269.489,236.886Z" transform="translate(-240.783 -174.043)" fill="#4ce6ff"/>
        <path id="Path_1051" data-name="Path 1051" d="M259.172,223.493C251.2,219.33,248.1,216.672,245,211.358c-3.012-5.049-3.1-11.338-.266-17.715,1.683-3.809,1.949-5.492,1.417-9.655-.531-4.872-.531-4.96,1.063-3.543a6.006,6.006,0,0,0,3.012,1.506c.974,0,1.594,1.151,2.037,3.277.62,3.809,3.72,6.112,5.58,4.163a3.894,3.894,0,0,0,1.063-2.3c0-.8.266-.8,1.063,0a3.4,3.4,0,0,0,2.48.974c.8,0,.62-.354-.62-.8a4.556,4.556,0,0,1-1.594-7.086,4.308,4.308,0,0,1,7.175.443c1.772,2.746.974,3.986-1.24,1.949-2.3-2.126-3.9-1.86-3.543.443.177,1.594.8,2.037,2.834,2.037l2.48-.089-2.037,1.683c-1.949,1.506-1.949,1.683-.354,1.417a5.93,5.93,0,0,0,3.012-2.923c.974-2.037.974-2.923,0-4.606a5.533,5.533,0,0,0-10.275,1.506c-.443,2.392-.62,2.569-1.86,1.329-1.151-1.063-1.151-1.772-.354-3.632a10.419,10.419,0,0,0,1.063-3.454c0-1.949-3.543-4.96-5.757-4.96-3.012,0-2.746-1.506.709-3.543,5.492-3.366,14.527-1.683,21.524,3.986,5.58,4.606,7.529,10.452,7.352,22.41l-.089,9.478-2.126-2.657c-2.214-2.746-2.835-2.48-1.24.443.709,1.329.531,1.772-.886,2.214-.974.266-1.772.886-1.772,1.329s-.886.974-1.949,1.152c-1.86.354-1.772.443.886,1.594,1.506.62,2.835,1.506,2.835,1.86s.443.709,1.063.709c.531,0,.354-.709-.62-1.772-1.594-1.772-1.329-4.429.531-4.429.531,0,1.152.8,1.417,1.772s.886,1.772,1.329,1.772c.531,0,.443.62-.177,1.329-.8.974-.886,1.329,0,1.329,1.329,0,.443,4.429-1.949,9.566-1.86,3.9-6.643,7.263-10.364,7.263C266.878,227.124,262.981,225.53,259.172,223.493Zm17.893-41.543c.8-1.24-1.063-4.163-3.543-5.846-3.454-2.214-4.163-.62-1.506,3.189C274.408,182.747,276,183.633,277.065,181.95Z" transform="translate(-237.73 -166.053)" fill="#4ce6ff"/>
        <path id="Path_1052" data-name="Path 1052" d="M245.9,227.6c-1.151-.8-1.063-1.063.443-2.214,1.506-1.24,1.86-1.151,3.1,0,1.152,1.24,1.152,1.506,0,2.214C247.759,228.662,247.493,228.662,245.9,227.6Z" transform="translate(-238.008 -172.728)" fill="#4ce6ff"/>
        <path id="Path_1053" data-name="Path 1053" d="M241,194.776a2.478,2.478,0,0,1,1.417-2.214c1.949-.709,2.392-.177,1.683,2.037C243.392,196.9,241,197.08,241,194.776Z" transform="translate(-237.539 -169.047)" fill="#4ce6ff"/>
        <path id="Path_1054" data-name="Path 1054" d="M237.276,192.054c-.8-2.037,1.152-3.543,2.835-2.126,1.063.886,1.151,1.417.354,2.3C239.136,193.826,237.985,193.826,237.276,192.054Z" transform="translate(-237.092 -168.717)" fill="#4ce6ff"/>
        <path id="Path_1055" data-name="Path 1055" d="M248.417,180.443A4.316,4.316,0,0,1,247,178.229c0-1.24,2.3-.974,3.543.531,1.417,1.683,4.429,1.772,4.429.089s-3.366-4.075-5.758-4.075c-1.417,0-1.506-.177-.443-.886,4.163-2.657,8.946,1.24,7,5.669-1.24,2.657-5.138,3.189-7.352.886Z" transform="translate(-238.224 -166.849)" fill="#4ce6ff"/>
      </g>
      <g id="Group_25" data-name="Group 25" transform="translate(19.605 13.464)">
        <path id="Path_1060" data-name="Path 1060" d="M326.256,345.909c-2.392-.62-2.48-.709-.443-.709a11.4,11.4,0,0,1,3.986.709C332.014,346.883,329.977,346.883,326.256,345.909Z" transform="translate(-156.749 -102.498)" fill="#ffc670"/>
        <path id="Path_1063" data-name="Path 1063" d="M365.594,287.084c-.886-.177-1.594-.8-1.594-1.24,0-.886,2.835-.354,5.315,1.063,1.063.62.974.709-.443.709A18.1,18.1,0,0,1,365.594,287.084Z" transform="translate(-161.276 -95.669)" fill="#ffc670"/>
        <path id="Path_1064" data-name="Path 1064" d="M329.375,285.9a9.415,9.415,0,0,1,3.1-.8c.8,0,.709.354-.443.8a9.415,9.415,0,0,1-3.1.8C328.135,286.694,328.224,286.34,329.375,285.9Z" transform="translate(-157.211 -95.633)" fill="#ffc670"/>
        <path id="Path_1065" data-name="Path 1065" d="M356.6,286.037c-2.3-.62-1.949-2.037.531-2.037,2.746,0,4.96.886,4.96,1.86,0,.8-2.746.886-5.492.177Z" transform="translate(-160.255 -95.507)" fill="#ffc670"/>
        <path id="Path_1066" data-name="Path 1066" d="M327.342,271.476c-12.667-2.48-24.359-8.592-28.522-14.7a22.1,22.1,0,0,1-3.72-13.287V239.5l1.506,2.214c5.137,7.529,12.755,12.4,24.979,15.944,9.212,2.657,28.7,3.366,38.088,1.417,11.869-2.48,22.321-8.681,27.282-16.121,1.949-3.012.266,11.072-1.772,14.438-3.632,6.023-13.552,11.6-24.979,14C352.32,272.982,335.136,273.071,327.342,271.476Z" transform="translate(-153.405 -90.424)" fill="#ffc670"/>
        <path id="Path_1067" data-name="Path 1067" d="M323.413,238.945c-3.277-4.695-.886-9.566,6.112-12.755,4.252-1.86,5.315-1.949,10.364-1.152a42.154,42.154,0,0,0,11.072.089c4.872-.709,6.023-.531,9.744,1.24,7,3.455,9.3,8.415,5.758,12.755-1.506,1.86-1.772,1.949-3.809.62-8.238-5.315-25.156-5.4-35.077-.354C324.831,240.805,324.742,240.805,323.413,238.945Z" transform="translate(-156.475 -88.718)" fill="#ffc670"/>
        <path id="Path_1068" data-name="Path 1068" d="M158.045,198.16c0-.443-1.329-1.594-2.834-2.48-17.715-10.1-19.221-11.249-19.841-14.438-.62-3.1.089-15.147.886-15.944.177-.266,6.555,3.189,14,7.529L163.8,180.8l.266,6.112c.266,5.935.177,6.112-2.923,9.123C159.463,197.629,158.045,198.692,158.045,198.16Z" transform="translate(-135.133 -81.947)" fill="#ffc670"/>
        <path id="Path_1069" data-name="Path 1069" d="M169,187.872c0-2.657.443-4.872.886-4.872.531,0,.886,2.214.886,4.872s-.354,4.872-.886,4.872C169.443,192.743,169,190.529,169,187.872Z" transform="translate(-139.002 -83.971)" fill="#ffc670"/>
        <path id="Path_1070" data-name="Path 1070" d="M184,180.4c0-3.1.354-4.517,1.417-4.872,3.189-1.24,3.9-.62,3.9,3.454,0,3.543-.266,4.163-2.3,4.872a12.24,12.24,0,0,1-2.657.886C184.177,184.738,184,182.79,184,180.4Z" transform="translate(-140.715 -83.052)" fill="#ffc670"/>
        <path id="Path_1071" data-name="Path 1071" d="M190.793,176.872c-.177-3.455.089-4.872.886-4.872.709,0,1.063,1.594,1.063,4.872C192.742,183.161,191.236,183.161,190.793,176.872Z" transform="translate(-141.485 -82.714)" fill="#ffc670"/>
        <path id="Path_1072" data-name="Path 1072" d="M152,96.976V83.867l6.023-3.277c3.277-1.86,8.326-4.695,11.249-6.378l5.315-3.012L174.5,83.867c-.089,6.909-.354,13.109-.709,13.641a15.861,15.861,0,0,1-4.34,2.746c-2.037.974-6.466,3.543-9.921,5.758a57.935,57.935,0,0,1-6.82,3.986C152.266,110,152,104.151,152,96.976Z" transform="translate(-137.06 -71.2)" fill="#ffc670"/>
        <path id="Path_1073" data-name="Path 1073" d="M149.4,98.981c0-7.086.177-9.921.266-6.378.177,3.455.177,9.3,0,12.844C149.577,108.9,149.4,106.067,149.4,98.981Z" transform="translate(-136.763 -73.471)" fill="#ffc670"/>
      </g>
      <g id="Group_26" data-name="Group 26" transform="translate(11.486 15.058)">
        <path id="Path_1074" data-name="Path 1074" d="M330.559,349.678a42.024,42.024,0,0,1-5.758-1.683c-2.126-.974-2.126-.974.443-.531,1.506.354,9.566.8,17.893,1.063,8.415.266,15.058.8,14.792,1.24-.531.974-22.5.886-27.37-.089Z" transform="translate(-148.503 -104.318)" fill="#ca85ff"/>
        <path id="Path_1075" data-name="Path 1075" d="M326.858,341.06c-11.426-1.417-28.61-6.289-37.557-10.629a56.5,56.5,0,0,0-6.82-3.012c-.8,0-4.075-2.657-10.629-8.769-3.189-2.834-5.58-5.935-6.2-7.972a17.191,17.191,0,0,0-1.594-3.632c-.266-.266-.443-3.72-.266-7.795l.354-7.352,2.835,3.809c9.566,12.4,31,21.967,57.221,25.6,10.629,1.506,37.025.531,46.06-1.683,12.667-3.189,21.436-7,30.559-13.287,4.606-3.277,10.186-8.769,10.186-10.009a.9.9,0,0,1,.974-.8c1.506,0,.443,15.59-1.24,19.487-3.189,7.263-18.247,17.361-32.242,21.613-11.869,3.543-16.918,4.252-32.6,4.517-8.769.177-17.361.089-19.044-.089Z" transform="translate(-141.702 -98.004)" fill="#ca85ff"/>
        <path id="Path_1076" data-name="Path 1076" d="M226.557,237.489l-3.1-.531-.266-5.935c-.177-3.366,0-6.023.354-6.023,1.417,0,21.436,11.958,21.081,12.578-.531.8-13.464.709-18.07-.089Z" transform="translate(-137.065 -90.362)" fill="#ca85ff"/>
        <path id="Path_1077" data-name="Path 1077" d="M287.939,232.989c-4.34-2.657-3.455-6.289,1.417-6.289,3.809,0,4.783,1.152,4.075,5.049-.709,3.632-1.417,3.809-5.492,1.24Z" transform="translate(-144.149 -90.557)" fill="#ca85ff"/>
        <path id="Path_1078" data-name="Path 1078" d="M335.218,211.954c-5.137-1.329-12.578-5.492-14.438-8.061-2.657-3.72-2.214-6.555,1.329-10.009,8.238-7.972,29.23-8.5,41.188-1.063,4.34,2.746,5.669,4.606,5.669,7.972,0,6.732-8.5,11.161-22.056,11.6A66.758,66.758,0,0,1,335.218,211.954Zm19.221-6.466c4.34-3.012,5.137-4.695,3.543-7.529-1.949-3.454-8.769-5.846-15.058-5.4-8.415.62-14.35,4.872-12.667,9.123.266.8,1.949,2.392,3.72,3.543,2.746,1.949,4.163,2.214,10.364,2.214,6.023,0,7.706-.354,10.1-1.949Z" transform="translate(-148.025 -86.086)" fill="#ca85ff"/>
        <path id="Path_1079" data-name="Path 1079" d="M338.923,207.535c-1.594-.443-2.923-1.152-2.923-1.594,0-1.417,2.3-1.683,3.986-.443,1.949,1.506,9.566,1.683,12.047.266a4.856,4.856,0,0,1,3.277-.354c1.152.531.8.886-1.594,1.772-3.632,1.417-10.718,1.506-14.792.354Z" transform="translate(-149.959 -88.044)" fill="#ca85ff"/>
        <path id="Path_1080" data-name="Path 1080" d="M169,187.988c0-3.543.354-4.96,1.329-5.4,1.24-.443,1.417.266,1.152,4.517C171.126,193.923,169,194.72,169,187.988Z" transform="translate(-130.883 -85.504)" fill="#ca85ff"/>
        <path id="Path_1081" data-name="Path 1081" d="M257.3,189.683c-.089-.974.443-1.683,1.151-1.683,1.594,0,1.683,2.3.089,2.923-.709.266-1.24-.266-1.24-1.24Z" transform="translate(-140.968 -86.136)" fill="#ca85ff"/>
        <path id="Path_1082" data-name="Path 1082" d="M264.543,189.606c-1.417-.443-3.543-2.746-3.543-3.9,0-.354.974-.709,2.214-.709s2.214.443,2.214.886c0,.531.886,1.24,1.949,1.683,1.949.709,1.949.709.266,1.594A4.458,4.458,0,0,1,264.543,189.606Z" transform="translate(-141.392 -85.793)" fill="#ca85ff"/>
        <path id="Path_1083" data-name="Path 1083" d="M186.319,174.179V169.75l-16.564-9.566c-9.212-5.226-17.361-10.1-18.158-10.806-1.683-1.417-2.214-6.378-.62-6.378.8,0,12.135,6.466,36.494,20.727,8.415,5.049,8.592,5.226,8.592,8.415,0,3.1-.177,3.366-3.72,4.34-2.126.62-4.34,1.329-4.872,1.594C186.585,178.431,186.319,177.368,186.319,174.179Z" transform="translate(-128.715 -80.996)" fill="#ca85ff"/>
        <path id="Path_1084" data-name="Path 1084" d="M248.417,180.444A4.777,4.777,0,0,1,247,177.432c0-3.543,5.315-5.846,7.795-3.366,1.683,1.683,1.24,2.48-1.151,2.48-1.417,0-2.214.531-2.214,1.329a2.114,2.114,0,0,0,3.72,1.24c.709-.974.8-.886.354.354a17.544,17.544,0,0,0-.531,2.037C254.972,182.481,249.569,181.684,248.417,180.444Z" transform="translate(-139.792 -84.426)" fill="#ca85ff"/>
        <path id="Path_1085" data-name="Path 1085" d="M147,145.1c0-1.683.443-3.1.886-3.1.531,0,.886,1.417.886,3.1s-.354,3.1-.886,3.1C147.443,148.2,147,146.783,147,145.1Z" transform="translate(-128.37 -80.882)" fill="#ca85ff"/>
        <path id="Path_1086" data-name="Path 1086" d="M137.511,103.913c-5.137-3.012-9.832-5.758-10.364-6.289C125.908,96.562,125.465,73,126.7,73c.709,0,18.867,10.364,19.93,11.426.354.354.531,6.112.443,12.755l-.266,12.047Z" transform="translate(-125.967 -73)" fill="#ca85ff"/>
      </g>
      <g id="Group_27" data-name="Group 27" transform="translate(28.661 76.177)">
        <path id="Path_1089" data-name="Path 1089" d="M360.04,286.578c-2.392-.443-10.009-.8-16.83-.886-12.755-.177-13.375-.974-1.506-2.214a66.241,66.241,0,0,1,23.207,2.657C369.34,287.463,367.3,287.641,360.04,286.578Z" transform="translate(-166.815 -158.141)" fill="#fee7cb"/>
        <path id="Path_1090" data-name="Path 1090" d="M269.939,237.772c-.8-1.506-.709-1.772,1.24-1.772a2.8,2.8,0,0,1,2.569,1.24C274.811,239.986,271.356,240.429,269.939,237.772Z" transform="translate(-159.534 -152.737)" fill="#fee7cb"/>
        <path id="Path_1091" data-name="Path 1091" d="M245.9,227.614c-1.151-.709-1.063-.974.443-2.126,1.594-1.152,1.949-1.152,3.1,0s1.152,1.417,0,2.126C247.759,228.677,247.582,228.677,245.9,227.614Z" transform="translate(-156.752 -151.438)" fill="#fee7cb"/>
        <path id="Path_1092" data-name="Path 1092" d="M281.457,213.517c-1.594-1.683-1.417-4.517.177-4.517a5.478,5.478,0,0,1,2.392,1.772c1.506,1.594,1.506,1.949.354,3.189-1.24,1.152-1.506,1.063-2.923-.443Z" transform="translate(-160.777 -149.653)" fill="#fee7cb"/>
        <path id="Path_1093" data-name="Path 1093" d="M338.923,207.363c-1.594-.443-2.923-1.24-2.923-1.683,0-2.746,15.944-3.455,19.044-.886,1.417,1.152,1.24,1.329-1.417,2.3-3.543,1.329-10.718,1.417-14.7.266Z" transform="translate(-167.134 -148.991)" fill="#fee7cb"/>
        <path id="Path_1094" data-name="Path 1094" d="M237.364,192.172c-.886-2.126.443-3.189,2.392-2.126,1.417.709,1.594,1.151.709,2.214C239.135,193.855,237.984,193.855,237.364,192.172Z" transform="translate(-155.835 -147.441)" fill="#fee7cb"/>
        <path id="Path_1095" data-name="Path 1095" d="M257.62,190.037c-1.063-.974-.709-2.037.709-2.037a1.362,1.362,0,0,1,1.329,1.329C259.658,190.746,258.595,191.1,257.62,190.037Z" transform="translate(-158.11 -147.254)" fill="#fee7cb"/>
        <path id="Path_1096" data-name="Path 1096" d="M146.015,147.4c-.8-.531-.886-.974-.177-1.329a3.165,3.165,0,0,0,.974-2.392c0-.886.443-1.683.886-1.683.531,0,.886,1.417.886,3.1,0,3.189-.443,3.632-2.569,2.3Z" transform="translate(-145.358 -142)" fill="#fee7cb"/>
      </g>
      <g id="Group_28" data-name="Group 28" transform="translate(119.015 103.839)">
        <path id="Path_1097" data-name="Path 1097" d="M315.47,342.746A1.879,1.879,0,0,1,317.33,340c.8,0,1.24.62,1.063,1.506C318.038,343.277,316.267,343.986,315.47,342.746Z" transform="translate(-255.116 -192.279)" fill="#fefefe"/>
        <path id="Path_1098" data-name="Path 1098" d="M337.372,342.593a1.565,1.565,0,0,1,2.392-1.949,1.7,1.7,0,0,1-.974,2.923A2.093,2.093,0,0,1,337.372,342.593Z" transform="translate(-257.62 -192.303)" fill="#fefefe"/>
        <path id="Path_1099" data-name="Path 1099" d="M359.372,342.593a1.565,1.565,0,0,1,2.392-1.949,1.7,1.7,0,0,1-.974,2.923A2.093,2.093,0,0,1,359.372,342.593Z" transform="translate(-260.133 -192.303)" fill="#fefefe"/>
        <path id="Path_1100" data-name="Path 1100" d="M381.372,342.593a1.565,1.565,0,0,1,2.392-1.949,1.7,1.7,0,0,1-.974,2.923A2.093,2.093,0,0,1,381.372,342.593Z" transform="translate(-262.646 -192.303)" fill="#fefefe"/>
        <path id="Path_1101" data-name="Path 1101" d="M304.47,331.746A1.879,1.879,0,0,1,306.33,329c.8,0,1.24.62,1.063,1.506-.354,1.772-2.126,2.48-2.923,1.24Z" transform="translate(-253.859 -191.023)" fill="#fefefe"/>
        <path id="Path_1102" data-name="Path 1102" d="M326.372,331.593a1.565,1.565,0,0,1,2.392-1.949,1.7,1.7,0,0,1-.974,2.923,2.093,2.093,0,0,1-1.417-.974Z" transform="translate(-256.363 -191.047)" fill="#fefefe"/>
        <path id="Path_1103" data-name="Path 1103" d="M348.372,331.593a1.565,1.565,0,0,1,2.392-1.949,1.7,1.7,0,0,1-.974,2.923,2.093,2.093,0,0,1-1.417-.974Z" transform="translate(-258.876 -191.047)" fill="#fefefe"/>
        <path id="Path_1104" data-name="Path 1104" d="M370.372,331.593a1.565,1.565,0,0,1,2.392-1.949,1.7,1.7,0,0,1-.974,2.923,2.093,2.093,0,0,1-1.417-.974Z" transform="translate(-261.389 -191.047)" fill="#fefefe"/>
        <path id="Path_1105" data-name="Path 1105" d="M392.615,332.031c-1.24-1.24-.62-3.1.974-2.835A1.877,1.877,0,0,1,395.1,330.7,1.534,1.534,0,0,1,392.615,332.031Z" transform="translate(-263.88 -191.042)" fill="#fefefe"/>
        <path id="Path_1106" data-name="Path 1106" d="M283,330.329a1.329,1.329,0,1,1,1.329,1.329A1.362,1.362,0,0,1,283,330.329Z" transform="translate(-251.434 -191.023)" fill="#fefefe"/>
        <path id="Path_1107" data-name="Path 1107" d="M414,330.329A1.287,1.287,0,0,1,415.24,329c1.949,0,2.48,1.506.886,2.126C414.177,331.923,414,331.834,414,330.329Z" transform="translate(-266.397 -191.023)" fill="#fefefe"/>
        <path id="Path_1108" data-name="Path 1108" d="M271.47,320.657c-.709-1.24.266-2.657,1.86-2.657.709,0,1.24.8,1.24,1.772A1.638,1.638,0,0,1,271.47,320.657Z" transform="translate(-250.09 -189.766)" fill="#fefefe"/>
        <path id="Path_1109" data-name="Path 1109" d="M293.589,320.222a1.543,1.543,0,0,1,.886-1.949c1.683-.62,2.48.177,1.86,1.949C295.626,321.9,294.3,321.9,293.589,320.222Z" transform="translate(-252.633 -189.773)" fill="#fefefe"/>
        <path id="Path_1110" data-name="Path 1110" d="M403.615,321.031c-1.24-1.24-.62-3.1.974-2.834A1.877,1.877,0,0,1,406.1,319.7a1.534,1.534,0,0,1-2.48,1.329Z" transform="translate(-265.136 -189.786)" fill="#fefefe"/>
        <path id="Path_1111" data-name="Path 1111" d="M425,319.79c0-1.329.443-1.772,1.594-1.594a1.6,1.6,0,0,1,0,3.189C425.443,321.561,425,321.118,425,319.79Z" transform="translate(-267.654 -189.784)" fill="#fefefe"/>
        <path id="Path_1112" data-name="Path 1112" d="M262.25,187.013c-1.506-1.683-1.506-2.037-.266-4.163,1.86-3.366,5.492-3.632,7.529-.62,1.683,2.569,1.063,3.9-1.063,2.214-1.152-1.063-1.506-.974-2.126,0-1.063,1.772-.089,2.923,1.949,2.392,1.417-.354,1.506-.266.62.8-1.506,1.772-4.695,1.506-6.643-.62Z" transform="translate(-248.93 -174.018)" fill="#fefefe"/>
        <path id="Path_1113" data-name="Path 1113" d="M248.459,180.2c-2.834-3.1.266-7.883,4.34-6.82,3.189.8,4.429,3.632,2.657,6.378A4.268,4.268,0,0,1,248.459,180.2Zm6.555-1.329a2.524,2.524,0,0,0-.709-1.772c-1.152-.709-3.1.974-2.48,2.037C252.71,180.555,255.013,180.378,255.013,178.872Z" transform="translate(-247.363 -173.229)" fill="#fefefe"/>
      </g>
    </g>
    <g id="can" transform="translate(901.949 964.375)">
      <path id="Path_1177" data-name="Path 1177" d="M822.9-1182.487c.023,5.473,9.071,14.634,24.922,14.206s24.707-8.622,24.483-14.206-3.326-13.124-24.051-13.429S822.88-1187.961,822.9-1182.487Z" transform="translate(-822.776 1229.26)"/>
      <path id="Path_1176" data-name="Path 1176" d="M822.889-1159.161s7.589,10.613,26.054,10.507,23.473-10.162,23.473-10.162v-23.237s-1.9,14.374-23.473,14.109c-24.438-.219-26.054-13.371-26.054-13.371Z" transform="translate(-822.884 1195.82)" fill="#ffc670" stroke="#b38b4f" stroke-width="1"/>
      <path id="Path_1175" data-name="Path 1175" d="M822.9-1182.487c-.258,3.294,2,14.738,24.922,14.206s24.671-11.74,24.483-14.206-3.326-13.124-24.051-13.429S823.16-1185.781,822.9-1182.487Z" transform="translate(-822.884 1195.923)" fill="#d8511c" stroke="#8c3512" stroke-width="1"/>
    </g>
  </g>
</svg>
